<?xml version="1.0" encoding="UTF-8" standalone="no"?>
<!DOCTYPE svg PUBLIC "-//W3C//DTD SVG 1.1//EN"
 "http://www.w3.org/Graphics/SVG/1.1/DTD/svg11.dtd">
<!-- Generated by graphviz version 2.43.0 (0)
 -->
<!-- Title: cross_reference Pages: 1 -->
<svg width="176pt" height="338pt"
 viewBox="0.00 0.00 176.00 337.54" xmlns="http://www.w3.org/2000/svg" xmlns:xlink="http://www.w3.org/1999/xlink">
<g id="graph0" class="graph" transform="scale(1 1) rotate(0) translate(4 333.54)">
<title>cross_reference</title>
<polygon fill="white" stroke="transparent" points="-4,4 -4,-333.54 172,-333.54 172,4 -4,4"/>
<!-- start -->
<g id="node1" class="node">
<title>start</title>
<ellipse fill="#e3f2fd" stroke="black" cx="85" cy="-311.15" rx="39.7" ry="18.27"/>
<text text-anchor="middle" x="85" y="-308.35" font-family="Helvetica,sans-Serif" font-size="11.00">Start</text>
</g>
<!-- soggetto -->
<g id="node2" class="node">
<title>soggetto</title>
<path fill="#bbdefb" stroke="black" d="M66,-256.77C66,-256.77 12,-256.77 12,-256.77 6,-256.77 0,-250.77 0,-244.77 0,-244.77 0,-232.77 0,-232.77 0,-226.77 6,-220.77 12,-220.77 12,-220.77 66,-220.77 66,-220.77 72,-220.77 78,-226.77 78,-232.77 78,-232.77 78,-244.77 78,-244.77 78,-250.77 72,-256.77 66,-256.77"/>
<text text-anchor="middle" x="39" y="-235.97" font-family="Helvetica,sans-Serif" font-size="11.00">Soggetto</text>
</g>
<!-- start&#45;&gt;soggetto -->
<g id="edge1" class="edge">
<title>start&#45;&gt;soggetto</title>
<path fill="none" stroke="#666666" d="M74.1,-293.47C68.62,-285.09 61.87,-274.76 55.75,-265.4"/>
<polygon fill="#666666" stroke="#666666" points="58.54,-263.28 50.14,-256.82 52.68,-267.1 58.54,-263.28"/>
</g>
<!-- azienda -->
<g id="node3" class="node">
<title>azienda</title>
<path fill="#bbdefb" stroke="black" d="M156,-256.77C156,-256.77 108,-256.77 108,-256.77 102,-256.77 96,-250.77 96,-244.77 96,-244.77 96,-232.77 96,-232.77 96,-226.77 102,-220.77 108,-220.77 108,-220.77 156,-220.77 156,-220.77 162,-220.77 168,-226.77 168,-232.77 168,-232.77 168,-244.77 168,-244.77 168,-250.77 162,-256.77 156,-256.77"/>
<text text-anchor="middle" x="132" y="-235.97" font-family="Helvetica,sans-Serif" font-size="11.00">Azienda</text>
</g>
<!-- start&#45;&gt;azienda -->
<g id="edge2" class="edge">
<title>start&#45;&gt;azienda</title>
<path fill="none" stroke="#666666" d="M96.14,-293.47C101.73,-285.09 108.64,-274.76 114.89,-265.4"/>
<polygon fill="#666666" stroke="#666666" points="117.97,-267.08 120.62,-256.82 112.15,-263.19 117.97,-267.08"/>
</g>
<!-- cross -->
<g id="node4" class="node">
<title>cross</title>
<path fill="#c8e6c9" stroke="black" d="M128,-184.77C128,-184.77 42,-184.77 42,-184.77 36,-184.77 30,-178.77 30,-172.77 30,-172.77 30,-158.77 30,-158.77 30,-152.77 36,-146.77 42,-146.77 42,-146.77 128,-146.77 128,-146.77 134,-146.77 140,-152.77 140,-158.77 140,-158.77 140,-172.77 140,-172.77 140,-178.77 134,-184.77 128,-184.77"/>
<text text-anchor="middle" x="85" y="-168.97" font-family="Helvetica,sans-Serif" font-size="11.00">Cross&#45;property</text>
<text text-anchor="middle" x="85" y="-156.97" font-family="Helvetica,sans-Serif" font-size="11.00">Intestati</text>
</g>
<!-- soggetto&#45;&gt;cross -->
<g id="edge3" class="edge">
<title>soggetto&#45;&gt;cross</title>
<path fill="none" stroke="#666666" d="M50.14,-220.58C55.45,-212.37 61.94,-202.36 67.87,-193.21"/>
<polygon fill="#666666" stroke="#666666" points="70.83,-195.08 73.33,-184.79 64.95,-191.28 70.83,-195.08"/>
</g>
<!-- azienda&#45;&gt;cross -->
<g id="edge4" class="edge">
<title>azienda&#45;&gt;cross</title>
<path fill="none" stroke="#666666" d="M120.62,-220.58C115.19,-212.37 108.56,-202.36 102.5,-193.21"/>
<polygon fill="#666666" stroke="#666666" points="105.37,-191.2 96.93,-184.79 99.53,-195.06 105.37,-191.2"/>
</g>
<!-- risk -->
<g id="node5" class="node">
<title>risk</title>
<path fill="#e8eaf6" stroke="black" d="M102.5,-110.77C102.5,-110.77 67.5,-110.77 67.5,-110.77 61.5,-110.77 55.5,-104.77 55.5,-98.77 55.5,-98.77 55.5,-84.77 55.5,-84.77 55.5,-78.77 61.5,-72.77 67.5,-72.77 67.5,-72.77 102.5,-72.77 102.5,-72.77 108.5,-72.77 114.5,-78.77 114.5,-84.77 114.5,-84.77 114.5,-98.77 114.5,-98.77 114.5,-104.77 108.5,-110.77 102.5,-110.77"/>
<text text-anchor="middle" x="85" y="-94.97" font-family="Helvetica,sans-Serif" font-size="11.00">Risk</text>
<text text-anchor="middle" x="85" y="-82.97" font-family="Helvetica,sans-Serif" font-size="11.00">Score</text>
</g>
<!-- cross&#45;&gt;risk -->
<g id="edge5" class="edge">
<title>cross&#45;&gt;risk</title>
<path fill="none" stroke="#666666" d="M85,-146.6C85,-138.9 85,-129.74 85,-121.19"/>
<polygon fill="#666666" stroke="#666666" points="88.5,-121.18 85,-111.18 81.5,-121.18 88.5,-121.18"/>
</g>
<!-- done -->
<g id="node6" class="node">
<title>done</title>
<ellipse fill="#e8f5e9" stroke="black" cx="85" cy="-18.38" rx="40.11" ry="18.27"/>
<text text-anchor="middle" x="85" y="-15.58" font-family="Helvetica,sans-Serif" font-size="11.00">Done</text>
</g>
<!-- risk&#45;&gt;done -->
<g id="edge6" class="edge">
<title>risk&#45;&gt;done</title>
<path fill="none" stroke="#666666" d="M85,-72.76C85,-65 85,-55.76 85,-47.17"/>
<polygon fill="#666666" stroke="#666666" points="88.5,-47.15 85,-37.15 81.5,-47.15 88.5,-47.15"/>
</g>
</g>
</svg>
