<?xml version="1.0" encoding="UTF-8" standalone="no"?>
<!DOCTYPE svg PUBLIC "-//W3C//DTD SVG 1.1//EN"
 "http://www.w3.org/Graphics/SVG/1.1/DTD/svg11.dtd">
<!-- Generated by graphviz version 2.43.0 (0)
 -->
<!-- Title: cross_reference Pages: 1 -->
<svg width="270pt" height="278pt"
 viewBox="0.00 0.00 270.00 277.54" xmlns="http://www.w3.org/2000/svg" xmlns:xlink="http://www.w3.org/1999/xlink">
<g id="graph0" class="graph" transform="scale(1 1) rotate(0) translate(4 273.54)">
<title>cross_reference</title>
<polygon fill="white" stroke="transparent" points="-4,4 -4,-273.54 266,-273.54 266,4 -4,4"/>
<!-- start -->
<g id="node1" class="node">
<title>start</title>
<ellipse fill="#e3f2fd" stroke="black" cx="128" cy="-251.15" rx="39.7" ry="18.27"/>
<text text-anchor="middle" x="128" y="-248.35" font-family="Helvetica,sans-Serif" font-size="11.00">Start</text>
</g>
<!-- soggetto -->
<g id="node2" class="node">
<title>soggetto</title>
<path fill="#bbdefb" stroke="black" d="M104,-196.77C104,-196.77 12,-196.77 12,-196.77 6,-196.77 0,-190.77 0,-184.77 0,-184.77 0,-170.77 0,-170.77 0,-164.77 6,-158.77 12,-158.77 12,-158.77 104,-158.77 104,-158.77 110,-158.77 116,-164.77 116,-170.77 116,-170.77 116,-184.77 116,-184.77 116,-190.77 110,-196.77 104,-196.77"/>
<text text-anchor="middle" x="58" y="-180.97" font-family="Helvetica,sans-Serif" font-size="11.00">Soggetto</text>
<text text-anchor="middle" x="58" y="-168.97" font-family="Helvetica,sans-Serif" font-size="11.00">(person search)</text>
</g>
<!-- start&#45;&gt;soggetto -->
<g id="edge1" class="edge">
<title>start&#45;&gt;soggetto</title>
<path fill="none" stroke="#666666" d="M112.12,-233.96C103.5,-225.17 92.66,-214.11 82.94,-204.21"/>
<polygon fill="#666666" stroke="#666666" points="85.29,-201.6 75.79,-196.91 80.29,-206.5 85.29,-201.6"/>
</g>
<!-- azienda -->
<g id="node3" class="node">
<title>azienda</title>
<path fill="#bbdefb" stroke="black" d="M250,-196.77C250,-196.77 146,-196.77 146,-196.77 140,-196.77 134,-190.77 134,-184.77 134,-184.77 134,-170.77 134,-170.77 134,-164.77 140,-158.77 146,-158.77 146,-158.77 250,-158.77 250,-158.77 256,-158.77 262,-164.77 262,-170.77 262,-170.77 262,-184.77 262,-184.77 262,-190.77 256,-196.77 250,-196.77"/>
<text text-anchor="middle" x="198" y="-180.97" font-family="Helvetica,sans-Serif" font-size="11.00">Azienda</text>
<text text-anchor="middle" x="198" y="-168.97" font-family="Helvetica,sans-Serif" font-size="11.00">(company search)</text>
</g>
<!-- start&#45;&gt;azienda -->
<g id="edge2" class="edge">
<title>start&#45;&gt;azienda</title>
<path fill="none" stroke="#666666" d="M143.88,-233.96C152.5,-225.17 163.34,-214.11 173.06,-204.21"/>
<polygon fill="#666666" stroke="#666666" points="175.71,-206.5 180.21,-196.91 170.71,-201.6 175.71,-206.5"/>
</g>
<!-- cross -->
<g id="node4" class="node">
<title>cross</title>
<path fill="#c8e6c9" stroke="black" d="M183,-122.77C183,-122.77 73,-122.77 73,-122.77 67,-122.77 61,-116.77 61,-110.77 61,-110.77 61,-84.77 61,-84.77 61,-78.77 67,-72.77 73,-72.77 73,-72.77 183,-72.77 183,-72.77 189,-72.77 195,-78.77 195,-84.77 195,-84.77 195,-110.77 195,-110.77 195,-116.77 189,-122.77 183,-122.77"/>
<text text-anchor="middle" x="128" y="-106.97" font-family="Helvetica,sans-Serif" font-size="11.00">Cross&#45;property</text>
<text text-anchor="middle" x="128" y="-94.97" font-family="Helvetica,sans-Serif" font-size="11.00">Intestati</text>
<text text-anchor="middle" x="128" y="-82.97" font-family="Helvetica,sans-Serif" font-size="11.00">(overlap detection)</text>
</g>
<!-- soggetto&#45;&gt;cross -->
<g id="edge3" class="edge">
<title>soggetto&#45;&gt;cross</title>
<path fill="none" stroke="#666666" d="M74.24,-158.68C81.76,-150.3 90.92,-140.09 99.53,-130.49"/>
<polygon fill="#666666" stroke="#666666" points="102.21,-132.75 106.28,-122.97 97,-128.07 102.21,-132.75"/>
</g>
<!-- azienda&#45;&gt;cross -->
<g id="edge4" class="edge">
<title>azienda&#45;&gt;cross</title>
<path fill="none" stroke="#666666" d="M181.76,-158.68C174.24,-150.3 165.08,-140.09 156.47,-130.49"/>
<polygon fill="#666666" stroke="#666666" points="159,-128.07 149.72,-122.97 153.79,-132.75 159,-128.07"/>
</g>
<!-- done -->
<g id="node5" class="node">
<title>done</title>
<ellipse fill="#e8f5e9" stroke="black" cx="128" cy="-18.38" rx="40.11" ry="18.27"/>
<text text-anchor="middle" x="128" y="-15.58" font-family="Helvetica,sans-Serif" font-size="11.00">Done</text>
</g>
<!-- cross&#45;&gt;done -->
<g id="edge5" class="edge">
<title>cross&#45;&gt;done</title>
<path fill="none" stroke="#666666" d="M128,-72.71C128,-64.6 128,-55.48 128,-47.11"/>
<polygon fill="#666666" stroke="#666666" points="131.5,-47.04 128,-37.04 124.5,-47.04 131.5,-47.04"/>
</g>
</g>
</svg>
