<?xml version="1.0" encoding="UTF-8" standalone="no"?>
<!DOCTYPE svg PUBLIC "-//W3C//DTD SVG 1.1//EN"
 "http://www.w3.org/Graphics/SVG/1.1/DTD/svg11.dtd">
<!-- Generated by graphviz version 2.43.0 (0)
 -->
<!-- Title: due_diligence Pages: 1 -->
<svg width="170pt" height="414pt"
 viewBox="0.00 0.00 170.20 413.74" xmlns="http://www.w3.org/2000/svg" xmlns:xlink="http://www.w3.org/1999/xlink">
<g id="graph0" class="graph" transform="scale(1 1) rotate(0) translate(21.6 392.14)">
<title>due_diligence</title>
<!-- start -->
<g id="node1" class="node">
<title>start</title>
<ellipse fill="#3b82f6" stroke="black" cx="63.5" cy="-352.15" rx="37.45" ry="18.27"/>
<text text-anchor="middle" x="63.5" y="-349.35" font-family="Inter" font-size="11.00" fill="white">Start</text>
</g>
<!-- search -->
<g id="node2" class="node">
<title>search</title>
<path fill="#dbeafe" stroke="black" d="M113.5,-287.77C113.5,-287.77 13.5,-287.77 13.5,-287.77 7.5,-287.77 1.5,-281.77 1.5,-275.77 1.5,-275.77 1.5,-261.77 1.5,-261.77 1.5,-255.77 7.5,-249.77 13.5,-249.77 13.5,-249.77 113.5,-249.77 113.5,-249.77 119.5,-249.77 125.5,-255.77 125.5,-261.77 125.5,-261.77 125.5,-275.77 125.5,-275.77 125.5,-281.77 119.5,-287.77 113.5,-287.77"/>
<text text-anchor="middle" x="63.5" y="-271.97" font-family="Inter" font-size="11.00">Property Search</text>
<text text-anchor="middle" x="63.5" y="-259.97" font-family="Inter" font-size="11.00">(foglio + particella)</text>
</g>
<!-- start&#45;&gt;search -->
<g id="edge1" class="edge">
<title>start&#45;&gt;search</title>
<path fill="none" stroke="#64748b" d="M63.5,-333.5C63.5,-323.19 63.5,-309.94 63.5,-298.19"/>
<polygon fill="#64748b" stroke="#64748b" points="67,-297.96 63.5,-287.96 60,-297.96 67,-297.96"/>
<text text-anchor="middle" x="78.5" y="-308.57" font-family="Inter" font-size="9.00"> Fase 1</text>
</g>
<!-- intestati -->
<g id="node3" class="node">
<title>intestati</title>
<path fill="#dbeafe" stroke="black" d="M104,-193.77C104,-193.77 23,-193.77 23,-193.77 17,-193.77 11,-187.77 11,-181.77 11,-181.77 11,-167.77 11,-167.77 11,-161.77 17,-155.77 23,-155.77 23,-155.77 104,-155.77 104,-155.77 110,-155.77 116,-161.77 116,-167.77 116,-167.77 116,-181.77 116,-181.77 116,-187.77 110,-193.77 104,-193.77"/>
<text text-anchor="middle" x="63.5" y="-177.97" font-family="Inter" font-size="11.00">Owner Lookup</text>
<text text-anchor="middle" x="63.5" y="-165.97" font-family="Inter" font-size="11.00">(per sub&#45;unit)</text>
</g>
<!-- search&#45;&gt;intestati -->
<g id="edge2" class="edge">
<title>search&#45;&gt;intestati</title>
<path fill="none" stroke="#64748b" d="M63.5,-249.59C63.5,-236.61 63.5,-218.9 63.5,-204.08"/>
<polygon fill="#64748b" stroke="#64748b" points="67,-203.91 63.5,-193.91 60,-203.91 67,-203.91"/>
<text text-anchor="middle" x="84.5" y="-224.57" font-family="Inter" font-size="9.00"> for each</text>
<text text-anchor="middle" x="84.5" y="-214.57" font-family="Inter" font-size="9.00"> immobile</text>
</g>
<!-- ispezioni -->
<g id="node4" class="node">
<title>ispezioni</title>
<path fill="#fef3c7" stroke="black" d="M115,-109.77C115,-109.77 12,-109.77 12,-109.77 6,-109.77 0,-103.77 0,-97.77 0,-97.77 0,-85.77 0,-85.77 0,-79.77 6,-73.77 12,-73.77 12,-73.77 115,-73.77 115,-73.77 121,-73.77 127,-79.77 127,-85.77 127,-85.77 127,-97.77 127,-97.77 127,-103.77 121,-109.77 115,-109.77"/>
<text text-anchor="middle" x="63.5" y="-88.97" font-family="Inter" font-size="11.00">Inspection Records</text>
</g>
<!-- intestati&#45;&gt;ispezioni -->
<g id="edge3" class="edge">
<title>intestati&#45;&gt;ispezioni</title>
<path fill="none" stroke="#64748b" d="M63.5,-155.39C63.5,-144.95 63.5,-131.69 63.5,-120.06"/>
<polygon fill="#64748b" stroke="#64748b" points="67,-119.97 63.5,-109.97 60,-119.97 67,-119.97"/>
<text text-anchor="middle" x="89" y="-130.57" font-family="Inter" font-size="9.00"> enrichment</text>
</g>
<!-- done -->
<g id="node5" class="node">
<title>done</title>
<ellipse fill="#22c55e" stroke="black" cx="63.5" cy="-18.38" rx="44.6" ry="18.27"/>
<text text-anchor="middle" x="63.5" y="-15.58" font-family="Inter" font-size="11.00" fill="white">Report</text>
</g>
<!-- ispezioni&#45;&gt;done -->
<g id="edge4" class="edge">
<title>ispezioni&#45;&gt;done</title>
<path fill="none" stroke="#64748b" d="M63.5,-73.49C63.5,-65.63 63.5,-56.12 63.5,-47.29"/>
<polygon fill="#64748b" stroke="#64748b" points="67,-47 63.5,-37 60,-47 67,-47"/>
</g>
</g>
</svg>
