<?xml version="1.0" encoding="UTF-8" standalone="no"?>
<!DOCTYPE svg PUBLIC "-//W3C//DTD SVG 1.1//EN"
 "http://www.w3.org/Graphics/SVG/1.1/DTD/svg11.dtd">
<!-- Generated by graphviz version 2.43.0 (0)
 -->
<!-- Title: due_diligence Pages: 1 -->
<svg width="189pt" height="587pt"
 viewBox="0.00 0.00 189.00 586.54" xmlns="http://www.w3.org/2000/svg" xmlns:xlink="http://www.w3.org/1999/xlink">
<g id="graph0" class="graph" transform="scale(1 1) rotate(0) translate(4 582.54)">
<title>due_diligence</title>
<polygon fill="white" stroke="transparent" points="-4,4 -4,-582.54 185,-582.54 185,4 -4,4"/>
<!-- start -->
<g id="node1" class="node">
<title>start</title>
<ellipse fill="#e3f2fd" stroke="black" cx="125" cy="-560.15" rx="39.7" ry="18.27"/>
<text text-anchor="middle" x="125" y="-557.35" font-family="Helvetica,sans-Serif" font-size="11.00">Start</text>
</g>
<!-- search -->
<g id="node2" class="node">
<title>search</title>
<path fill="#bbdefb" stroke="black" d="M155,-504.77C155,-504.77 95,-504.77 95,-504.77 89,-504.77 83,-498.77 83,-492.77 83,-492.77 83,-478.77 83,-478.77 83,-472.77 89,-466.77 95,-466.77 95,-466.77 155,-466.77 155,-466.77 161,-466.77 167,-472.77 167,-478.77 167,-478.77 167,-492.77 167,-492.77 167,-498.77 161,-504.77 155,-504.77"/>
<text text-anchor="middle" x="125" y="-488.97" font-family="Helvetica,sans-Serif" font-size="11.00">Search</text>
<text text-anchor="middle" x="125" y="-476.97" font-family="Helvetica,sans-Serif" font-size="11.00">(immobili)</text>
</g>
<!-- start&#45;&gt;search -->
<g id="edge1" class="edge">
<title>start&#45;&gt;search</title>
<path fill="none" stroke="#666666" d="M125,-541.63C125,-533.63 125,-523.96 125,-514.97"/>
<polygon fill="#666666" stroke="#666666" points="128.5,-514.89 125,-504.89 121.5,-514.89 128.5,-514.89"/>
</g>
<!-- intestati -->
<g id="node3" class="node">
<title>intestati</title>
<path fill="#bbdefb" stroke="black" d="M165,-429.77C165,-429.77 85,-429.77 85,-429.77 79,-429.77 73,-423.77 73,-417.77 73,-417.77 73,-403.77 73,-403.77 73,-397.77 79,-391.77 85,-391.77 85,-391.77 165,-391.77 165,-391.77 171,-391.77 177,-397.77 177,-403.77 177,-403.77 177,-417.77 177,-417.77 177,-423.77 171,-429.77 165,-429.77"/>
<text text-anchor="middle" x="125" y="-413.97" font-family="Helvetica,sans-Serif" font-size="11.00">Intestati</text>
<text text-anchor="middle" x="125" y="-401.97" font-family="Helvetica,sans-Serif" font-size="11.00">(per sub&#45;unit)</text>
</g>
<!-- search&#45;&gt;intestati -->
<g id="edge2" class="edge">
<title>search&#45;&gt;intestati</title>
<path fill="none" stroke="#666666" d="M125,-466.72C125,-458.65 125,-448.95 125,-439.95"/>
<polygon fill="#666666" stroke="#666666" points="128.5,-439.86 125,-429.86 121.5,-439.86 128.5,-439.86"/>
</g>
<!-- ispezioni -->
<g id="node4" class="node">
<title>ispezioni</title>
<path fill="#c8e6c9" stroke="black" d="M151.5,-354.77C151.5,-354.77 98.5,-354.77 98.5,-354.77 92.5,-354.77 86.5,-348.77 86.5,-342.77 86.5,-342.77 86.5,-328.77 86.5,-328.77 86.5,-322.77 92.5,-316.77 98.5,-316.77 98.5,-316.77 151.5,-316.77 151.5,-316.77 157.5,-316.77 163.5,-322.77 163.5,-328.77 163.5,-328.77 163.5,-342.77 163.5,-342.77 163.5,-348.77 157.5,-354.77 151.5,-354.77"/>
<text text-anchor="middle" x="125" y="-338.97" font-family="Helvetica,sans-Serif" font-size="11.00">Ispezioni</text>
<text text-anchor="middle" x="125" y="-326.97" font-family="Helvetica,sans-Serif" font-size="11.00">(digital)</text>
</g>
<!-- intestati&#45;&gt;ispezioni -->
<g id="edge3" class="edge">
<title>intestati&#45;&gt;ispezioni</title>
<path fill="none" stroke="#666666" d="M125,-391.72C125,-383.65 125,-373.95 125,-364.95"/>
<polygon fill="#666666" stroke="#666666" points="128.5,-364.86 125,-354.86 121.5,-364.86 128.5,-364.86"/>
</g>
<!-- elaborato -->
<g id="node5" class="node">
<title>elaborato</title>
<path fill="#c8e6c9" stroke="black" d="M161.5,-279.77C161.5,-279.77 88.5,-279.77 88.5,-279.77 82.5,-279.77 76.5,-273.77 76.5,-267.77 76.5,-267.77 76.5,-253.77 76.5,-253.77 76.5,-247.77 82.5,-241.77 88.5,-241.77 88.5,-241.77 161.5,-241.77 161.5,-241.77 167.5,-241.77 173.5,-247.77 173.5,-253.77 173.5,-253.77 173.5,-267.77 173.5,-267.77 173.5,-273.77 167.5,-279.77 161.5,-279.77"/>
<text text-anchor="middle" x="125" y="-263.97" font-family="Helvetica,sans-Serif" font-size="11.00">Elaborato</text>
<text text-anchor="middle" x="125" y="-251.97" font-family="Helvetica,sans-Serif" font-size="11.00">Planimetrico</text>
</g>
<!-- ispezioni&#45;&gt;elaborato -->
<g id="edge4" class="edge">
<title>ispezioni&#45;&gt;elaborato</title>
<path fill="none" stroke="#666666" d="M125,-316.72C125,-308.65 125,-298.95 125,-289.95"/>
<polygon fill="#666666" stroke="#666666" points="128.5,-289.86 125,-279.86 121.5,-289.86 128.5,-289.86"/>
</g>
<!-- cross -->
<g id="node6" class="node">
<title>cross</title>
<path fill="#fff9c4" stroke="black" stroke-dasharray="5,2" d="M119.5,-195.77C119.5,-195.77 58.5,-195.77 58.5,-195.77 52.5,-195.77 46.5,-189.77 46.5,-183.77 46.5,-183.77 46.5,-169.77 46.5,-169.77 46.5,-163.77 52.5,-157.77 58.5,-157.77 58.5,-157.77 119.5,-157.77 119.5,-157.77 125.5,-157.77 131.5,-163.77 131.5,-169.77 131.5,-169.77 131.5,-183.77 131.5,-183.77 131.5,-189.77 125.5,-195.77 119.5,-195.77"/>
<text text-anchor="middle" x="89" y="-179.97" font-family="Helvetica,sans-Serif" font-size="11.00">Owner</text>
<text text-anchor="middle" x="89" y="-167.97" font-family="Helvetica,sans-Serif" font-size="11.00">Expansion</text>
</g>
<!-- elaborato&#45;&gt;cross -->
<g id="edge6" class="edge">
<title>elaborato&#45;&gt;cross</title>
<path fill="none" stroke="#666666" stroke-dasharray="5,2" d="M117.01,-241.57C112.35,-230.95 106.38,-217.35 101.14,-205.43"/>
<polygon fill="#666666" stroke="#666666" points="104.19,-203.67 96.97,-195.92 97.78,-206.48 104.19,-203.67"/>
<text text-anchor="middle" x="121.5" y="-216.57" font-family="Helvetica,sans-Serif" font-size="9.00">deep</text>
</g>
<!-- done -->
<g id="node8" class="node">
<title>done</title>
<ellipse fill="#e8f5e9" stroke="black" cx="122" cy="-18.38" rx="40.11" ry="18.27"/>
<text text-anchor="middle" x="122" y="-15.58" font-family="Helvetica,sans-Serif" font-size="11.00">Done</text>
</g>
<!-- elaborato&#45;&gt;done -->
<g id="edge5" class="edge">
<title>elaborato&#45;&gt;done</title>
<path fill="none" stroke="#666666" d="M131.75,-241.64C133.67,-235.98 135.61,-229.67 137,-223.77 139.89,-211.54 140.11,-208.31 141,-195.77 144.76,-142.87 134.87,-81.34 127.98,-46.71"/>
<polygon fill="#666666" stroke="#666666" points="131.4,-45.96 125.96,-36.87 124.55,-47.37 131.4,-45.96"/>
<text text-anchor="middle" x="160.5" y="-132.57" font-family="Helvetica,sans-Serif" font-size="9.00">standard</text>
</g>
<!-- ipotecaria -->
<g id="node7" class="node">
<title>ipotecaria</title>
<path fill="#ffcdd2" stroke="black" stroke-dasharray="5,2" d="M82,-111.77C82,-111.77 12,-111.77 12,-111.77 6,-111.77 0,-105.77 0,-99.77 0,-99.77 0,-85.77 0,-85.77 0,-79.77 6,-73.77 12,-73.77 12,-73.77 82,-73.77 82,-73.77 88,-73.77 94,-79.77 94,-85.77 94,-85.77 94,-99.77 94,-99.77 94,-105.77 88,-111.77 82,-111.77"/>
<text text-anchor="middle" x="47" y="-95.97" font-family="Helvetica,sans-Serif" font-size="11.00">Ispezione</text>
<text text-anchor="middle" x="47" y="-83.97" font-family="Helvetica,sans-Serif" font-size="11.00">Ipotecaria €</text>
</g>
<!-- cross&#45;&gt;ipotecaria -->
<g id="edge7" class="edge">
<title>cross&#45;&gt;ipotecaria</title>
<path fill="none" stroke="#666666" stroke-dasharray="5,2" d="M79.68,-157.57C74.19,-146.85 67.13,-133.08 60.98,-121.07"/>
<polygon fill="#666666" stroke="#666666" points="63.97,-119.22 56.3,-111.92 57.74,-122.41 63.97,-119.22"/>
<text text-anchor="middle" x="81" y="-132.57" font-family="Helvetica,sans-Serif" font-size="9.00">paid</text>
</g>
<!-- cross&#45;&gt;done -->
<g id="edge9" class="edge">
<title>cross&#45;&gt;done</title>
<path fill="none" stroke="#666666" stroke-dasharray="5,2" d="M93.04,-157.58C95.87,-144.77 99.72,-127.23 103,-111.77 107.63,-89.94 112.72,-65.18 116.46,-46.79"/>
<polygon fill="#666666" stroke="#666666" points="119.93,-47.26 118.49,-36.77 113.07,-45.87 119.93,-47.26"/>
</g>
<!-- ipotecaria&#45;&gt;done -->
<g id="edge8" class="edge">
<title>ipotecaria&#45;&gt;done</title>
<path fill="none" stroke="#666666" stroke-dasharray="5,2" d="M65.93,-73.5C75.7,-64.07 87.73,-52.46 98.14,-42.41"/>
<polygon fill="#666666" stroke="#666666" points="100.61,-44.89 105.38,-35.43 95.75,-39.85 100.61,-44.89"/>
</g>
</g>
</svg>
