<?xml version="1.0" encoding="UTF-8" standalone="no"?>
<!DOCTYPE svg PUBLIC "-//W3C//DTD SVG 1.1//EN"
 "http://www.w3.org/Graphics/SVG/1.1/DTD/svg11.dtd">
<!-- Generated by graphviz version 2.43.0 (0)
 -->
<!-- Title: due_diligence Pages: 1 -->
<svg width="209pt" height="731pt"
 viewBox="0.00 0.00 209.00 730.54" xmlns="http://www.w3.org/2000/svg" xmlns:xlink="http://www.w3.org/1999/xlink">
<g id="graph0" class="graph" transform="scale(1 1) rotate(0) translate(4 726.54)">
<title>due_diligence</title>
<polygon fill="white" stroke="transparent" points="-4,4 -4,-726.54 205,-726.54 205,4 -4,4"/>
<!-- start -->
<g id="node1" class="node">
<title>start</title>
<ellipse fill="#e3f2fd" stroke="black" cx="129" cy="-704.15" rx="39.7" ry="18.27"/>
<text text-anchor="middle" x="129" y="-701.35" font-family="Helvetica,sans-Serif" font-size="11.00">Start</text>
</g>
<!-- search -->
<g id="node2" class="node">
<title>search</title>
<path fill="#bbdefb" stroke="black" d="M150,-648.77C150,-648.77 108,-648.77 108,-648.77 102,-648.77 96,-642.77 96,-636.77 96,-636.77 96,-624.77 96,-624.77 96,-618.77 102,-612.77 108,-612.77 108,-612.77 150,-612.77 150,-612.77 156,-612.77 162,-618.77 162,-624.77 162,-624.77 162,-636.77 162,-636.77 162,-642.77 156,-648.77 150,-648.77"/>
<text text-anchor="middle" x="129" y="-627.97" font-family="Helvetica,sans-Serif" font-size="11.00">Search</text>
</g>
<!-- start&#45;&gt;search -->
<g id="edge1" class="edge">
<title>start&#45;&gt;search</title>
<path fill="none" stroke="#666666" d="M129,-685.51C129,-677.64 129,-668.19 129,-659.42"/>
<polygon fill="#666666" stroke="#666666" points="132.5,-659.21 129,-649.21 125.5,-659.21 132.5,-659.21"/>
</g>
<!-- intestati -->
<g id="node3" class="node">
<title>intestati</title>
<path fill="#bbdefb" stroke="black" d="M154,-575.77C154,-575.77 104,-575.77 104,-575.77 98,-575.77 92,-569.77 92,-563.77 92,-563.77 92,-551.77 92,-551.77 92,-545.77 98,-539.77 104,-539.77 104,-539.77 154,-539.77 154,-539.77 160,-539.77 166,-545.77 166,-551.77 166,-551.77 166,-563.77 166,-563.77 166,-569.77 160,-575.77 154,-575.77"/>
<text text-anchor="middle" x="129" y="-554.97" font-family="Helvetica,sans-Serif" font-size="11.00">Intestati</text>
</g>
<!-- search&#45;&gt;intestati -->
<g id="edge2" class="edge">
<title>search&#45;&gt;intestati</title>
<path fill="none" stroke="#666666" d="M129,-612.58C129,-604.56 129,-594.82 129,-585.84"/>
<polygon fill="#666666" stroke="#666666" points="132.5,-585.8 129,-575.8 125.5,-585.8 132.5,-585.8"/>
</g>
<!-- ispezioni -->
<g id="node4" class="node">
<title>ispezioni</title>
<path fill="#c8e6c9" stroke="black" d="M155.5,-502.77C155.5,-502.77 102.5,-502.77 102.5,-502.77 96.5,-502.77 90.5,-496.77 90.5,-490.77 90.5,-490.77 90.5,-478.77 90.5,-478.77 90.5,-472.77 96.5,-466.77 102.5,-466.77 102.5,-466.77 155.5,-466.77 155.5,-466.77 161.5,-466.77 167.5,-472.77 167.5,-478.77 167.5,-478.77 167.5,-490.77 167.5,-490.77 167.5,-496.77 161.5,-502.77 155.5,-502.77"/>
<text text-anchor="middle" x="129" y="-481.97" font-family="Helvetica,sans-Serif" font-size="11.00">Ispezioni</text>
</g>
<!-- intestati&#45;&gt;ispezioni -->
<g id="edge3" class="edge">
<title>intestati&#45;&gt;ispezioni</title>
<path fill="none" stroke="#666666" d="M129,-539.58C129,-531.56 129,-521.82 129,-512.84"/>
<polygon fill="#666666" stroke="#666666" points="132.5,-512.8 129,-502.8 125.5,-512.8 132.5,-512.8"/>
</g>
<!-- elaborato -->
<g id="node5" class="node">
<title>elaborato</title>
<path fill="#c8e6c9" stroke="black" d="M165.5,-429.77C165.5,-429.77 92.5,-429.77 92.5,-429.77 86.5,-429.77 80.5,-423.77 80.5,-417.77 80.5,-417.77 80.5,-403.77 80.5,-403.77 80.5,-397.77 86.5,-391.77 92.5,-391.77 92.5,-391.77 165.5,-391.77 165.5,-391.77 171.5,-391.77 177.5,-397.77 177.5,-403.77 177.5,-403.77 177.5,-417.77 177.5,-417.77 177.5,-423.77 171.5,-429.77 165.5,-429.77"/>
<text text-anchor="middle" x="129" y="-413.97" font-family="Helvetica,sans-Serif" font-size="11.00">Elaborato</text>
<text text-anchor="middle" x="129" y="-401.97" font-family="Helvetica,sans-Serif" font-size="11.00">Planimetrico</text>
</g>
<!-- ispezioni&#45;&gt;elaborato -->
<g id="edge4" class="edge">
<title>ispezioni&#45;&gt;elaborato</title>
<path fill="none" stroke="#666666" d="M129,-466.71C129,-458.76 129,-449.08 129,-440.08"/>
<polygon fill="#666666" stroke="#666666" points="132.5,-439.97 129,-429.97 125.5,-439.97 132.5,-439.97"/>
</g>
<!-- expand -->
<g id="node6" class="node">
<title>expand</title>
<path fill="#fff9c4" stroke="black" stroke-dasharray="5,2" d="M116.5,-345.77C116.5,-345.77 71.5,-345.77 71.5,-345.77 65.5,-345.77 59.5,-339.77 59.5,-333.77 59.5,-333.77 59.5,-319.77 59.5,-319.77 59.5,-313.77 65.5,-307.77 71.5,-307.77 71.5,-307.77 116.5,-307.77 116.5,-307.77 122.5,-307.77 128.5,-313.77 128.5,-319.77 128.5,-319.77 128.5,-333.77 128.5,-333.77 128.5,-339.77 122.5,-345.77 116.5,-345.77"/>
<text text-anchor="middle" x="94" y="-329.97" font-family="Helvetica,sans-Serif" font-size="11.00">Owner</text>
<text text-anchor="middle" x="94" y="-317.97" font-family="Helvetica,sans-Serif" font-size="11.00">Expand</text>
</g>
<!-- elaborato&#45;&gt;expand -->
<g id="edge5" class="edge">
<title>elaborato&#45;&gt;expand</title>
<path fill="none" stroke="#666666" stroke-dasharray="5,2" d="M121.23,-391.57C116.7,-380.95 110.89,-367.35 105.81,-355.43"/>
<polygon fill="#666666" stroke="#666666" points="108.89,-353.74 101.75,-345.92 102.45,-356.49 108.89,-353.74"/>
<text text-anchor="middle" x="124.5" y="-366.57" font-family="Helvetica,sans-Serif" font-size="9.00">deep</text>
</g>
<!-- risk -->
<g id="node9" class="node">
<title>risk</title>
<path fill="#e8eaf6" stroke="black" d="M139.5,-111.77C139.5,-111.77 104.5,-111.77 104.5,-111.77 98.5,-111.77 92.5,-105.77 92.5,-99.77 92.5,-99.77 92.5,-85.77 92.5,-85.77 92.5,-79.77 98.5,-73.77 104.5,-73.77 104.5,-73.77 139.5,-73.77 139.5,-73.77 145.5,-73.77 151.5,-79.77 151.5,-85.77 151.5,-85.77 151.5,-99.77 151.5,-99.77 151.5,-105.77 145.5,-111.77 139.5,-111.77"/>
<text text-anchor="middle" x="122" y="-95.97" font-family="Helvetica,sans-Serif" font-size="11.00">Risk</text>
<text text-anchor="middle" x="122" y="-83.97" font-family="Helvetica,sans-Serif" font-size="11.00">Score</text>
</g>
<!-- elaborato&#45;&gt;risk -->
<g id="edge7" class="edge">
<title>elaborato&#45;&gt;risk</title>
<path fill="none" stroke="#666666" d="M140.19,-391.62C149.07,-375.47 160,-350.9 160,-327.77 160,-327.77 160,-327.77 160,-166.77 160,-150.17 152.17,-133.6 143.62,-120.45"/>
<polygon fill="#666666" stroke="#666666" points="146.27,-118.13 137.68,-111.94 140.53,-122.14 146.27,-118.13"/>
<text text-anchor="middle" x="180.5" y="-249.57" font-family="Helvetica,sans-Serif" font-size="9.00">standard</text>
</g>
<!-- timeline -->
<g id="node7" class="node">
<title>timeline</title>
<path fill="#e8eaf6" stroke="black" d="M111.5,-270.77C111.5,-270.77 60.5,-270.77 60.5,-270.77 54.5,-270.77 48.5,-264.77 48.5,-258.77 48.5,-258.77 48.5,-244.77 48.5,-244.77 48.5,-238.77 54.5,-232.77 60.5,-232.77 60.5,-232.77 111.5,-232.77 111.5,-232.77 117.5,-232.77 123.5,-238.77 123.5,-244.77 123.5,-244.77 123.5,-258.77 123.5,-258.77 123.5,-264.77 117.5,-270.77 111.5,-270.77"/>
<text text-anchor="middle" x="86" y="-254.97" font-family="Helvetica,sans-Serif" font-size="11.00">Timeline</text>
<text text-anchor="middle" x="86" y="-242.97" font-family="Helvetica,sans-Serif" font-size="11.00">Build</text>
</g>
<!-- expand&#45;&gt;timeline -->
<g id="edge6" class="edge">
<title>expand&#45;&gt;timeline</title>
<path fill="none" stroke="#666666" stroke-dasharray="5,2" d="M92.02,-307.72C91.14,-299.65 90.07,-289.95 89.09,-280.95"/>
<polygon fill="#666666" stroke="#666666" points="92.55,-280.42 87.98,-270.86 85.59,-281.18 92.55,-280.42"/>
</g>
<!-- ipotecaria -->
<g id="node8" class="node">
<title>ipotecaria</title>
<path fill="#ffcdd2" stroke="black" stroke-dasharray="5,2" d="M82,-186.77C82,-186.77 12,-186.77 12,-186.77 6,-186.77 0,-180.77 0,-174.77 0,-174.77 0,-160.77 0,-160.77 0,-154.77 6,-148.77 12,-148.77 12,-148.77 82,-148.77 82,-148.77 88,-148.77 94,-154.77 94,-160.77 94,-160.77 94,-174.77 94,-174.77 94,-180.77 88,-186.77 82,-186.77"/>
<text text-anchor="middle" x="47" y="-170.97" font-family="Helvetica,sans-Serif" font-size="11.00">Ispezione</text>
<text text-anchor="middle" x="47" y="-158.97" font-family="Helvetica,sans-Serif" font-size="11.00">Ipotecaria €</text>
</g>
<!-- timeline&#45;&gt;ipotecaria -->
<g id="edge8" class="edge">
<title>timeline&#45;&gt;ipotecaria</title>
<path fill="none" stroke="#666666" stroke-dasharray="5,2" d="M77.34,-232.57C72.24,-221.85 65.69,-208.08 59.99,-196.07"/>
<polygon fill="#666666" stroke="#666666" points="63.09,-194.44 55.63,-186.92 56.77,-197.45 63.09,-194.44"/>
<text text-anchor="middle" x="79" y="-207.57" font-family="Helvetica,sans-Serif" font-size="9.00">paid</text>
</g>
<!-- timeline&#45;&gt;risk -->
<g id="edge10" class="edge">
<title>timeline&#45;&gt;risk</title>
<path fill="none" stroke="#666666" stroke-dasharray="5,2" d="M91.12,-232.63C94.65,-219.86 99.35,-202.33 103,-186.77 108.09,-165.08 113.11,-140.35 116.7,-121.86"/>
<polygon fill="#666666" stroke="#666666" points="120.14,-122.5 118.6,-112.01 113.27,-121.17 120.14,-122.5"/>
</g>
<!-- ipotecaria&#45;&gt;risk -->
<g id="edge9" class="edge">
<title>ipotecaria&#45;&gt;risk</title>
<path fill="none" stroke="#666666" stroke-dasharray="5,2" d="M65.54,-148.72C74.73,-139.77 85.99,-128.82 96.03,-119.05"/>
<polygon fill="#666666" stroke="#666666" points="98.69,-121.34 103.41,-111.86 93.81,-116.33 98.69,-121.34"/>
</g>
<!-- done -->
<g id="node10" class="node">
<title>done</title>
<ellipse fill="#e8f5e9" stroke="black" cx="122" cy="-18.38" rx="40.11" ry="18.27"/>
<text text-anchor="middle" x="122" y="-15.58" font-family="Helvetica,sans-Serif" font-size="11.00">Done</text>
</g>
<!-- risk&#45;&gt;done -->
<g id="edge11" class="edge">
<title>risk&#45;&gt;done</title>
<path fill="none" stroke="#666666" d="M122,-73.5C122,-65.52 122,-55.99 122,-47.16"/>
<polygon fill="#666666" stroke="#666666" points="125.5,-46.9 122,-36.9 118.5,-46.9 125.5,-46.9"/>
</g>
</g>
</svg>
