<?xml version="1.0" encoding="UTF-8" standalone="no"?>
<!DOCTYPE svg PUBLIC "-//W3C//DTD SVG 1.1//EN"
 "http://www.w3.org/Graphics/SVG/1.1/DTD/svg11.dtd">
<!-- Generated by graphviz version 2.43.0 (0)
 -->
<!-- Title: fondiario Pages: 1 -->
<svg width="177pt" height="461pt"
 viewBox="0.00 0.00 176.70 460.74" xmlns="http://www.w3.org/2000/svg" xmlns:xlink="http://www.w3.org/1999/xlink">
<g id="graph0" class="graph" transform="scale(1 1) rotate(0) translate(21.6 439.14)">
<title>fondiario</title>
<!-- start -->
<g id="node1" class="node">
<title>start</title>
<ellipse fill="#3b82f6" stroke="black" cx="63.5" cy="-399.15" rx="37.45" ry="18.27"/>
<text text-anchor="middle" x="63.5" y="-396.35" font-family="Inter" font-size="11.00" fill="white">Start</text>
</g>
<!-- elenco -->
<g id="node2" class="node">
<title>elenco</title>
<path fill="#dcfce7" stroke="black" d="M110.5,-334.77C110.5,-334.77 16.5,-334.77 16.5,-334.77 10.5,-334.77 4.5,-328.77 4.5,-322.77 4.5,-322.77 4.5,-308.77 4.5,-308.77 4.5,-302.77 10.5,-296.77 16.5,-296.77 16.5,-296.77 110.5,-296.77 110.5,-296.77 116.5,-296.77 122.5,-302.77 122.5,-308.77 122.5,-308.77 122.5,-322.77 122.5,-322.77 122.5,-328.77 116.5,-334.77 110.5,-334.77"/>
<text text-anchor="middle" x="63.5" y="-318.97" font-family="Inter" font-size="11.00">Property List</text>
<text text-anchor="middle" x="63.5" y="-306.97" font-family="Inter" font-size="11.00">(elenco immobili)</text>
</g>
<!-- start&#45;&gt;elenco -->
<g id="edge1" class="edge">
<title>start&#45;&gt;elenco</title>
<path fill="none" stroke="#64748b" d="M63.5,-380.5C63.5,-370.19 63.5,-356.94 63.5,-345.19"/>
<polygon fill="#64748b" stroke="#64748b" points="67,-344.96 63.5,-334.96 60,-344.96 67,-344.96"/>
<text text-anchor="middle" x="98.5" y="-355.57" font-family="Inter" font-size="9.00"> comune + foglio</text>
</g>
<!-- mappa -->
<g id="node3" class="node">
<title>mappa</title>
<path fill="#fef3c7" stroke="black" d="M102.5,-259.77C102.5,-259.77 24.5,-259.77 24.5,-259.77 18.5,-259.77 12.5,-253.77 12.5,-247.77 12.5,-247.77 12.5,-235.77 12.5,-235.77 12.5,-229.77 18.5,-223.77 24.5,-223.77 24.5,-223.77 102.5,-223.77 102.5,-223.77 108.5,-223.77 114.5,-229.77 114.5,-235.77 114.5,-235.77 114.5,-247.77 114.5,-247.77 114.5,-253.77 108.5,-259.77 102.5,-259.77"/>
<text text-anchor="middle" x="63.5" y="-238.97" font-family="Inter" font-size="11.00">Cadastral Map</text>
</g>
<!-- elenco&#45;&gt;mappa -->
<g id="edge2" class="edge">
<title>elenco&#45;&gt;mappa</title>
<path fill="none" stroke="#64748b" d="M63.5,-296.6C63.5,-288.66 63.5,-279.18 63.5,-270.4"/>
<polygon fill="#64748b" stroke="#64748b" points="67,-270.19 63.5,-260.19 60,-270.19 67,-270.19"/>
</g>
<!-- fiduciali -->
<g id="node4" class="node">
<title>fiduciali</title>
<path fill="#fef3c7" stroke="black" d="M104,-186.77C104,-186.77 23,-186.77 23,-186.77 17,-186.77 11,-180.77 11,-174.77 11,-174.77 11,-160.77 11,-160.77 11,-154.77 17,-148.77 23,-148.77 23,-148.77 104,-148.77 104,-148.77 110,-148.77 116,-154.77 116,-160.77 116,-160.77 116,-174.77 116,-174.77 116,-180.77 110,-186.77 104,-186.77"/>
<text text-anchor="middle" x="63.5" y="-170.97" font-family="Inter" font-size="11.00">Survey Points</text>
<text text-anchor="middle" x="63.5" y="-158.97" font-family="Inter" font-size="11.00">(punti fiduciali)</text>
</g>
<!-- mappa&#45;&gt;fiduciali -->
<g id="edge3" class="edge">
<title>mappa&#45;&gt;fiduciali</title>
<path fill="none" stroke="#64748b" d="M63.5,-223.71C63.5,-215.76 63.5,-206.08 63.5,-197.08"/>
<polygon fill="#64748b" stroke="#64748b" points="67,-196.97 63.5,-186.97 60,-196.97 67,-196.97"/>
</g>
<!-- originali -->
<g id="node5" class="node">
<title>originali</title>
<path fill="#fef3c7" stroke="black" d="M115,-111.77C115,-111.77 12,-111.77 12,-111.77 6,-111.77 0,-105.77 0,-99.77 0,-99.77 0,-85.77 0,-85.77 0,-79.77 6,-73.77 12,-73.77 12,-73.77 115,-73.77 115,-73.77 121,-73.77 127,-79.77 127,-85.77 127,-85.77 127,-99.77 127,-99.77 127,-105.77 121,-111.77 115,-111.77"/>
<text text-anchor="middle" x="63.5" y="-95.97" font-family="Inter" font-size="11.00">Original Records</text>
<text text-anchor="middle" x="63.5" y="-83.97" font-family="Inter" font-size="11.00">(originali impianto)</text>
</g>
<!-- fiduciali&#45;&gt;originali -->
<g id="edge4" class="edge">
<title>fiduciali&#45;&gt;originali</title>
<path fill="none" stroke="#64748b" d="M63.5,-148.72C63.5,-140.65 63.5,-130.95 63.5,-121.95"/>
<polygon fill="#64748b" stroke="#64748b" points="67,-121.86 63.5,-111.86 60,-121.86 67,-121.86"/>
</g>
<!-- done -->
<g id="node6" class="node">
<title>done</title>
<ellipse fill="#22c55e" stroke="black" cx="63.5" cy="-18.38" rx="44.6" ry="18.27"/>
<text text-anchor="middle" x="63.5" y="-15.58" font-family="Inter" font-size="11.00" fill="white">Report</text>
</g>
<!-- originali&#45;&gt;done -->
<g id="edge5" class="edge">
<title>originali&#45;&gt;done</title>
<path fill="none" stroke="#64748b" d="M63.5,-73.5C63.5,-65.52 63.5,-55.99 63.5,-47.16"/>
<polygon fill="#64748b" stroke="#64748b" points="67,-46.9 63.5,-36.9 60,-46.9 67,-46.9"/>
</g>
</g>
</svg>
