<?xml version="1.0" encoding="UTF-8" standalone="no"?>
<!DOCTYPE svg PUBLIC "-//W3C//DTD SVG 1.1//EN"
 "http://www.w3.org/Graphics/SVG/1.1/DTD/svg11.dtd">
<!-- Generated by graphviz version 2.43.0 (0)
 -->
<!-- Title: fondiario Pages: 1 -->
<svg width="105pt" height="562pt"
 viewBox="0.00 0.00 105.00 561.54" xmlns="http://www.w3.org/2000/svg" xmlns:xlink="http://www.w3.org/1999/xlink">
<g id="graph0" class="graph" transform="scale(1 1) rotate(0) translate(4 557.54)">
<title>fondiario</title>
<polygon fill="white" stroke="transparent" points="-4,4 -4,-557.54 101,-557.54 101,4 -4,4"/>
<!-- start -->
<g id="node1" class="node">
<title>start</title>
<ellipse fill="#e3f2fd" stroke="black" cx="48.5" cy="-535.15" rx="39.7" ry="18.27"/>
<text text-anchor="middle" x="48.5" y="-532.35" font-family="Helvetica,sans-Serif" font-size="11.00">Start</text>
</g>
<!-- elenco -->
<g id="node2" class="node">
<title>elenco</title>
<path fill="#bbdefb" stroke="black" d="M74,-480.77C74,-480.77 23,-480.77 23,-480.77 17,-480.77 11,-474.77 11,-468.77 11,-468.77 11,-454.77 11,-454.77 11,-448.77 17,-442.77 23,-442.77 23,-442.77 74,-442.77 74,-442.77 80,-442.77 86,-448.77 86,-454.77 86,-454.77 86,-468.77 86,-468.77 86,-474.77 80,-480.77 74,-480.77"/>
<text text-anchor="middle" x="48.5" y="-464.97" font-family="Helvetica,sans-Serif" font-size="11.00">Elenco</text>
<text text-anchor="middle" x="48.5" y="-452.97" font-family="Helvetica,sans-Serif" font-size="11.00">Immobili</text>
</g>
<!-- start&#45;&gt;elenco -->
<g id="edge1" class="edge">
<title>start&#45;&gt;elenco</title>
<path fill="none" stroke="#666666" d="M48.5,-516.51C48.5,-508.96 48.5,-499.95 48.5,-491.49"/>
<polygon fill="#666666" stroke="#666666" points="52,-491.21 48.5,-481.21 45,-491.21 52,-491.21"/>
</g>
<!-- mappa -->
<g id="node3" class="node">
<title>mappa</title>
<path fill="#c8e6c9" stroke="black" d="M69,-406.77C69,-406.77 28,-406.77 28,-406.77 22,-406.77 16,-400.77 16,-394.77 16,-394.77 16,-380.77 16,-380.77 16,-374.77 22,-368.77 28,-368.77 28,-368.77 69,-368.77 69,-368.77 75,-368.77 81,-374.77 81,-380.77 81,-380.77 81,-394.77 81,-394.77 81,-400.77 75,-406.77 69,-406.77"/>
<text text-anchor="middle" x="48.5" y="-390.97" font-family="Helvetica,sans-Serif" font-size="11.00">Mappa</text>
<text text-anchor="middle" x="48.5" y="-378.97" font-family="Helvetica,sans-Serif" font-size="11.00">(view)</text>
</g>
<!-- elenco&#45;&gt;mappa -->
<g id="edge2" class="edge">
<title>elenco&#45;&gt;mappa</title>
<path fill="none" stroke="#666666" d="M48.5,-442.6C48.5,-434.9 48.5,-425.74 48.5,-417.19"/>
<polygon fill="#666666" stroke="#666666" points="52,-417.18 48.5,-407.18 45,-417.18 52,-417.18"/>
</g>
<!-- export -->
<g id="node4" class="node">
<title>export</title>
<path fill="#c8e6c9" stroke="black" d="M69,-332.77C69,-332.77 28,-332.77 28,-332.77 22,-332.77 16,-326.77 16,-320.77 16,-320.77 16,-306.77 16,-306.77 16,-300.77 22,-294.77 28,-294.77 28,-294.77 69,-294.77 69,-294.77 75,-294.77 81,-300.77 81,-306.77 81,-306.77 81,-320.77 81,-320.77 81,-326.77 75,-332.77 69,-332.77"/>
<text text-anchor="middle" x="48.5" y="-316.97" font-family="Helvetica,sans-Serif" font-size="11.00">Export</text>
<text text-anchor="middle" x="48.5" y="-304.97" font-family="Helvetica,sans-Serif" font-size="11.00">Mappa</text>
</g>
<!-- mappa&#45;&gt;export -->
<g id="edge3" class="edge">
<title>mappa&#45;&gt;export</title>
<path fill="none" stroke="#666666" d="M48.5,-368.6C48.5,-360.9 48.5,-351.74 48.5,-343.19"/>
<polygon fill="#666666" stroke="#666666" points="52,-343.18 48.5,-333.18 45,-343.18 52,-343.18"/>
</g>
<!-- fiduciali -->
<g id="node5" class="node">
<title>fiduciali</title>
<path fill="#c8e6c9" stroke="black" d="M72.5,-258.77C72.5,-258.77 24.5,-258.77 24.5,-258.77 18.5,-258.77 12.5,-252.77 12.5,-246.77 12.5,-246.77 12.5,-232.77 12.5,-232.77 12.5,-226.77 18.5,-220.77 24.5,-220.77 24.5,-220.77 72.5,-220.77 72.5,-220.77 78.5,-220.77 84.5,-226.77 84.5,-232.77 84.5,-232.77 84.5,-246.77 84.5,-246.77 84.5,-252.77 78.5,-258.77 72.5,-258.77"/>
<text text-anchor="middle" x="48.5" y="-242.97" font-family="Helvetica,sans-Serif" font-size="11.00">Punti</text>
<text text-anchor="middle" x="48.5" y="-230.97" font-family="Helvetica,sans-Serif" font-size="11.00">Fiduciali</text>
</g>
<!-- export&#45;&gt;fiduciali -->
<g id="edge4" class="edge">
<title>export&#45;&gt;fiduciali</title>
<path fill="none" stroke="#666666" d="M48.5,-294.6C48.5,-286.9 48.5,-277.74 48.5,-269.19"/>
<polygon fill="#666666" stroke="#666666" points="52,-269.18 48.5,-259.18 45,-269.18 52,-269.18"/>
</g>
<!-- originali -->
<g id="node6" class="node">
<title>originali</title>
<path fill="#c8e6c9" stroke="black" d="M75,-184.77C75,-184.77 22,-184.77 22,-184.77 16,-184.77 10,-178.77 10,-172.77 10,-172.77 10,-158.77 10,-158.77 10,-152.77 16,-146.77 22,-146.77 22,-146.77 75,-146.77 75,-146.77 81,-146.77 87,-152.77 87,-158.77 87,-158.77 87,-172.77 87,-172.77 87,-178.77 81,-184.77 75,-184.77"/>
<text text-anchor="middle" x="48.5" y="-168.97" font-family="Helvetica,sans-Serif" font-size="11.00">Originali</text>
<text text-anchor="middle" x="48.5" y="-156.97" font-family="Helvetica,sans-Serif" font-size="11.00">Impianto</text>
</g>
<!-- fiduciali&#45;&gt;originali -->
<g id="edge5" class="edge">
<title>fiduciali&#45;&gt;originali</title>
<path fill="none" stroke="#666666" d="M48.5,-220.6C48.5,-212.9 48.5,-203.74 48.5,-195.19"/>
<polygon fill="#666666" stroke="#666666" points="52,-195.18 48.5,-185.18 45,-195.18 52,-195.18"/>
</g>
<!-- elaborato -->
<g id="node7" class="node">
<title>elaborato</title>
<path fill="#c8e6c9" stroke="black" d="M85,-110.77C85,-110.77 12,-110.77 12,-110.77 6,-110.77 0,-104.77 0,-98.77 0,-98.77 0,-84.77 0,-84.77 0,-78.77 6,-72.77 12,-72.77 12,-72.77 85,-72.77 85,-72.77 91,-72.77 97,-78.77 97,-84.77 97,-84.77 97,-98.77 97,-98.77 97,-104.77 91,-110.77 85,-110.77"/>
<text text-anchor="middle" x="48.5" y="-94.97" font-family="Helvetica,sans-Serif" font-size="11.00">Elaborato</text>
<text text-anchor="middle" x="48.5" y="-82.97" font-family="Helvetica,sans-Serif" font-size="11.00">Planimetrico</text>
</g>
<!-- originali&#45;&gt;elaborato -->
<g id="edge6" class="edge">
<title>originali&#45;&gt;elaborato</title>
<path fill="none" stroke="#666666" d="M48.5,-146.6C48.5,-138.9 48.5,-129.74 48.5,-121.19"/>
<polygon fill="#666666" stroke="#666666" points="52,-121.18 48.5,-111.18 45,-121.18 52,-121.18"/>
</g>
<!-- done -->
<g id="node8" class="node">
<title>done</title>
<ellipse fill="#e8f5e9" stroke="black" cx="48.5" cy="-18.38" rx="40.11" ry="18.27"/>
<text text-anchor="middle" x="48.5" y="-15.58" font-family="Helvetica,sans-Serif" font-size="11.00">Done</text>
</g>
<!-- elaborato&#45;&gt;done -->
<g id="edge7" class="edge">
<title>elaborato&#45;&gt;done</title>
<path fill="none" stroke="#666666" d="M48.5,-72.76C48.5,-65 48.5,-55.76 48.5,-47.17"/>
<polygon fill="#666666" stroke="#666666" points="52,-47.15 48.5,-37.15 45,-47.15 52,-47.15"/>
</g>
</g>
</svg>
