<?xml version="1.0" encoding="UTF-8" standalone="no"?>
<!DOCTYPE svg PUBLIC "-//W3C//DTD SVG 1.1//EN"
 "http://www.w3.org/Graphics/SVG/1.1/DTD/svg11.dtd">
<!-- Generated by graphviz version 2.43.0 (0)
 -->
<!-- Title: fondiario Pages: 1 -->
<svg width="105pt" height="630pt"
 viewBox="0.00 0.00 105.00 629.54" xmlns="http://www.w3.org/2000/svg" xmlns:xlink="http://www.w3.org/1999/xlink">
<g id="graph0" class="graph" transform="scale(1 1) rotate(0) translate(4 625.54)">
<title>fondiario</title>
<polygon fill="white" stroke="transparent" points="-4,4 -4,-625.54 101,-625.54 101,4 -4,4"/>
<!-- start -->
<g id="node1" class="node">
<title>start</title>
<ellipse fill="#e3f2fd" stroke="black" cx="48.5" cy="-603.15" rx="39.7" ry="18.27"/>
<text text-anchor="middle" x="48.5" y="-600.35" font-family="Helvetica,sans-Serif" font-size="11.00">Start</text>
</g>
<!-- elenco -->
<g id="node2" class="node">
<title>elenco</title>
<path fill="#bbdefb" stroke="black" d="M74,-548.77C74,-548.77 23,-548.77 23,-548.77 17,-548.77 11,-542.77 11,-536.77 11,-536.77 11,-522.77 11,-522.77 11,-516.77 17,-510.77 23,-510.77 23,-510.77 74,-510.77 74,-510.77 80,-510.77 86,-516.77 86,-522.77 86,-522.77 86,-536.77 86,-536.77 86,-542.77 80,-548.77 74,-548.77"/>
<text text-anchor="middle" x="48.5" y="-532.97" font-family="Helvetica,sans-Serif" font-size="11.00">Elenco</text>
<text text-anchor="middle" x="48.5" y="-520.97" font-family="Helvetica,sans-Serif" font-size="11.00">Immobili</text>
</g>
<!-- start&#45;&gt;elenco -->
<g id="edge1" class="edge">
<title>start&#45;&gt;elenco</title>
<path fill="none" stroke="#666666" d="M48.5,-584.51C48.5,-576.96 48.5,-567.95 48.5,-559.49"/>
<polygon fill="#666666" stroke="#666666" points="52,-559.21 48.5,-549.21 45,-559.21 52,-559.21"/>
</g>
<!-- mappa -->
<g id="node3" class="node">
<title>mappa</title>
<path fill="#c8e6c9" stroke="black" d="M69,-474.77C69,-474.77 28,-474.77 28,-474.77 22,-474.77 16,-468.77 16,-462.77 16,-462.77 16,-450.77 16,-450.77 16,-444.77 22,-438.77 28,-438.77 28,-438.77 69,-438.77 69,-438.77 75,-438.77 81,-444.77 81,-450.77 81,-450.77 81,-462.77 81,-462.77 81,-468.77 75,-474.77 69,-474.77"/>
<text text-anchor="middle" x="48.5" y="-453.97" font-family="Helvetica,sans-Serif" font-size="11.00">Mappa</text>
</g>
<!-- elenco&#45;&gt;mappa -->
<g id="edge2" class="edge">
<title>elenco&#45;&gt;mappa</title>
<path fill="none" stroke="#666666" d="M48.5,-510.49C48.5,-502.74 48.5,-493.56 48.5,-485.04"/>
<polygon fill="#666666" stroke="#666666" points="52,-484.77 48.5,-474.77 45,-484.77 52,-484.77"/>
</g>
<!-- export -->
<g id="node4" class="node">
<title>export</title>
<path fill="#c8e6c9" stroke="black" d="M69,-402.77C69,-402.77 28,-402.77 28,-402.77 22,-402.77 16,-396.77 16,-390.77 16,-390.77 16,-376.77 16,-376.77 16,-370.77 22,-364.77 28,-364.77 28,-364.77 69,-364.77 69,-364.77 75,-364.77 81,-370.77 81,-376.77 81,-376.77 81,-390.77 81,-390.77 81,-396.77 75,-402.77 69,-402.77"/>
<text text-anchor="middle" x="48.5" y="-386.97" font-family="Helvetica,sans-Serif" font-size="11.00">Export</text>
<text text-anchor="middle" x="48.5" y="-374.97" font-family="Helvetica,sans-Serif" font-size="11.00">Mappa</text>
</g>
<!-- mappa&#45;&gt;export -->
<g id="edge3" class="edge">
<title>mappa&#45;&gt;export</title>
<path fill="none" stroke="#666666" d="M48.5,-438.58C48.5,-430.88 48.5,-421.59 48.5,-412.92"/>
<polygon fill="#666666" stroke="#666666" points="52,-412.79 48.5,-402.79 45,-412.79 52,-412.79"/>
</g>
<!-- fiduciali -->
<g id="node5" class="node">
<title>fiduciali</title>
<path fill="#c8e6c9" stroke="black" d="M72.5,-328.77C72.5,-328.77 24.5,-328.77 24.5,-328.77 18.5,-328.77 12.5,-322.77 12.5,-316.77 12.5,-316.77 12.5,-304.77 12.5,-304.77 12.5,-298.77 18.5,-292.77 24.5,-292.77 24.5,-292.77 72.5,-292.77 72.5,-292.77 78.5,-292.77 84.5,-298.77 84.5,-304.77 84.5,-304.77 84.5,-316.77 84.5,-316.77 84.5,-322.77 78.5,-328.77 72.5,-328.77"/>
<text text-anchor="middle" x="48.5" y="-307.97" font-family="Helvetica,sans-Serif" font-size="11.00">Fiduciali</text>
</g>
<!-- export&#45;&gt;fiduciali -->
<g id="edge4" class="edge">
<title>export&#45;&gt;fiduciali</title>
<path fill="none" stroke="#666666" d="M48.5,-364.49C48.5,-356.74 48.5,-347.56 48.5,-339.04"/>
<polygon fill="#666666" stroke="#666666" points="52,-338.77 48.5,-328.77 45,-338.77 52,-338.77"/>
</g>
<!-- originali -->
<g id="node6" class="node">
<title>originali</title>
<path fill="#c8e6c9" stroke="black" d="M73.5,-256.77C73.5,-256.77 23.5,-256.77 23.5,-256.77 17.5,-256.77 11.5,-250.77 11.5,-244.77 11.5,-244.77 11.5,-232.77 11.5,-232.77 11.5,-226.77 17.5,-220.77 23.5,-220.77 23.5,-220.77 73.5,-220.77 73.5,-220.77 79.5,-220.77 85.5,-226.77 85.5,-232.77 85.5,-232.77 85.5,-244.77 85.5,-244.77 85.5,-250.77 79.5,-256.77 73.5,-256.77"/>
<text text-anchor="middle" x="48.5" y="-235.97" font-family="Helvetica,sans-Serif" font-size="11.00">Originali</text>
</g>
<!-- fiduciali&#45;&gt;originali -->
<g id="edge5" class="edge">
<title>fiduciali&#45;&gt;originali</title>
<path fill="none" stroke="#666666" d="M48.5,-292.47C48.5,-284.75 48.5,-275.48 48.5,-266.88"/>
<polygon fill="#666666" stroke="#666666" points="52,-266.87 48.5,-256.87 45,-266.87 52,-266.87"/>
</g>
<!-- elaborato -->
<g id="node7" class="node">
<title>elaborato</title>
<path fill="#c8e6c9" stroke="black" d="M85,-184.77C85,-184.77 12,-184.77 12,-184.77 6,-184.77 0,-178.77 0,-172.77 0,-172.77 0,-158.77 0,-158.77 0,-152.77 6,-146.77 12,-146.77 12,-146.77 85,-146.77 85,-146.77 91,-146.77 97,-152.77 97,-158.77 97,-158.77 97,-172.77 97,-172.77 97,-178.77 91,-184.77 85,-184.77"/>
<text text-anchor="middle" x="48.5" y="-168.97" font-family="Helvetica,sans-Serif" font-size="11.00">Elaborato</text>
<text text-anchor="middle" x="48.5" y="-156.97" font-family="Helvetica,sans-Serif" font-size="11.00">Planimetrico</text>
</g>
<!-- originali&#45;&gt;elaborato -->
<g id="edge6" class="edge">
<title>originali&#45;&gt;elaborato</title>
<path fill="none" stroke="#666666" d="M48.5,-220.58C48.5,-212.88 48.5,-203.59 48.5,-194.92"/>
<polygon fill="#666666" stroke="#666666" points="52,-194.79 48.5,-184.79 45,-194.79 52,-194.79"/>
</g>
<!-- risk -->
<g id="node8" class="node">
<title>risk</title>
<path fill="#e8eaf6" stroke="black" d="M66,-110.77C66,-110.77 31,-110.77 31,-110.77 25,-110.77 19,-104.77 19,-98.77 19,-98.77 19,-84.77 19,-84.77 19,-78.77 25,-72.77 31,-72.77 31,-72.77 66,-72.77 66,-72.77 72,-72.77 78,-78.77 78,-84.77 78,-84.77 78,-98.77 78,-98.77 78,-104.77 72,-110.77 66,-110.77"/>
<text text-anchor="middle" x="48.5" y="-94.97" font-family="Helvetica,sans-Serif" font-size="11.00">Risk</text>
<text text-anchor="middle" x="48.5" y="-82.97" font-family="Helvetica,sans-Serif" font-size="11.00">Score</text>
</g>
<!-- elaborato&#45;&gt;risk -->
<g id="edge7" class="edge">
<title>elaborato&#45;&gt;risk</title>
<path fill="none" stroke="#666666" d="M48.5,-146.6C48.5,-138.9 48.5,-129.74 48.5,-121.19"/>
<polygon fill="#666666" stroke="#666666" points="52,-121.18 48.5,-111.18 45,-121.18 52,-121.18"/>
</g>
<!-- done -->
<g id="node9" class="node">
<title>done</title>
<ellipse fill="#e8f5e9" stroke="black" cx="48.5" cy="-18.38" rx="40.11" ry="18.27"/>
<text text-anchor="middle" x="48.5" y="-15.58" font-family="Helvetica,sans-Serif" font-size="11.00">Done</text>
</g>
<!-- risk&#45;&gt;done -->
<g id="edge8" class="edge">
<title>risk&#45;&gt;done</title>
<path fill="none" stroke="#666666" d="M48.5,-72.76C48.5,-65 48.5,-55.76 48.5,-47.17"/>
<polygon fill="#666666" stroke="#666666" points="52,-47.15 48.5,-37.15 45,-47.15 52,-47.15"/>
</g>
</g>
</svg>
