<?xml version="1.0" encoding="UTF-8" standalone="no"?>
<!DOCTYPE svg PUBLIC "-//W3C//DTD SVG 1.1//EN"
 "http://www.w3.org/Graphics/SVG/1.1/DTD/svg11.dtd">
<!-- Generated by graphviz version 2.43.0 (0)
 -->
<!-- Title: full_aziendale Pages: 1 -->
<svg width="142pt" height="855pt"
 viewBox="0.00 0.00 142.00 855.00" xmlns="http://www.w3.org/2000/svg" xmlns:xlink="http://www.w3.org/1999/xlink">
<g id="graph0" class="graph" transform="scale(1 1) rotate(0) translate(4 851)">
<title>full_aziendale</title>
<polygon fill="white" stroke="transparent" points="-4,4 -4,-851 138,-851 138,4 -4,4"/>
<!-- start -->
<g id="node1" class="node">
<title>start</title>
<ellipse fill="#e3f2fd" stroke="black" cx="91" cy="-829" rx="29.8" ry="18"/>
<text text-anchor="middle" x="91" y="-826.5" font-family="Helvetica,sans-Serif" font-size="10.00">Start</text>
</g>
<!-- azienda -->
<g id="node2" class="node">
<title>azienda</title>
<path fill="#bbdefb" stroke="black" d="M110,-774C110,-774 72,-774 72,-774 66,-774 60,-768 60,-762 60,-762 60,-750 60,-750 60,-744 66,-738 72,-738 72,-738 110,-738 110,-738 116,-738 122,-744 122,-750 122,-750 122,-762 122,-762 122,-768 116,-774 110,-774"/>
<text text-anchor="middle" x="91" y="-759" font-family="Helvetica,sans-Serif" font-size="10.00">Azienda</text>
<text text-anchor="middle" x="91" y="-748" font-family="Helvetica,sans-Serif" font-size="10.00">(P.IVA)</text>
</g>
<!-- start&#45;&gt;azienda -->
<g id="edge1" class="edge">
<title>start&#45;&gt;azienda</title>
<path fill="none" stroke="#666666" d="M91,-810.81C91,-802.79 91,-793.05 91,-784.07"/>
<polygon fill="#666666" stroke="#666666" points="94.5,-784.03 91,-774.03 87.5,-784.03 94.5,-784.03"/>
</g>
<!-- drill -->
<g id="node3" class="node">
<title>drill</title>
<path fill="#c8e6c9" stroke="black" d="M110.5,-701C110.5,-701 71.5,-701 71.5,-701 65.5,-701 59.5,-695 59.5,-689 59.5,-689 59.5,-677 59.5,-677 59.5,-671 65.5,-665 71.5,-665 71.5,-665 110.5,-665 110.5,-665 116.5,-665 122.5,-671 122.5,-677 122.5,-677 122.5,-689 122.5,-689 122.5,-695 116.5,-701 110.5,-701"/>
<text text-anchor="middle" x="91" y="-686" font-family="Helvetica,sans-Serif" font-size="10.00">Drill</text>
<text text-anchor="middle" x="91" y="-675" font-family="Helvetica,sans-Serif" font-size="10.00">Intestati</text>
</g>
<!-- azienda&#45;&gt;drill -->
<g id="edge2" class="edge">
<title>azienda&#45;&gt;drill</title>
<path fill="none" stroke="#666666" d="M91,-737.81C91,-729.79 91,-720.05 91,-711.07"/>
<polygon fill="#666666" stroke="#666666" points="94.5,-711.03 91,-701.03 87.5,-711.03 94.5,-711.03"/>
</g>
<!-- addr -->
<g id="node4" class="node">
<title>addr</title>
<path fill="#c8e6c9" stroke="black" d="M110,-628C110,-628 72,-628 72,-628 66,-628 60,-622 60,-616 60,-616 60,-604 60,-604 60,-598 66,-592 72,-592 72,-592 110,-592 110,-592 116,-592 122,-598 122,-604 122,-604 122,-616 122,-616 122,-622 116,-628 110,-628"/>
<text text-anchor="middle" x="91" y="-613" font-family="Helvetica,sans-Serif" font-size="10.00">Address</text>
<text text-anchor="middle" x="91" y="-602" font-family="Helvetica,sans-Serif" font-size="10.00">Reverse</text>
</g>
<!-- drill&#45;&gt;addr -->
<g id="edge3" class="edge">
<title>drill&#45;&gt;addr</title>
<path fill="none" stroke="#666666" d="M91,-664.81C91,-656.79 91,-647.05 91,-638.07"/>
<polygon fill="#666666" stroke="#666666" points="94.5,-638.03 91,-628.03 87.5,-638.03 94.5,-638.03"/>
</g>
<!-- expand -->
<g id="node5" class="node">
<title>expand</title>
<path fill="#c8e6c9" stroke="black" d="M108.5,-555C108.5,-555 73.5,-555 73.5,-555 67.5,-555 61.5,-549 61.5,-543 61.5,-543 61.5,-531 61.5,-531 61.5,-525 67.5,-519 73.5,-519 73.5,-519 108.5,-519 108.5,-519 114.5,-519 120.5,-525 120.5,-531 120.5,-531 120.5,-543 120.5,-543 120.5,-549 114.5,-555 108.5,-555"/>
<text text-anchor="middle" x="91" y="-540" font-family="Helvetica,sans-Serif" font-size="10.00">Owner</text>
<text text-anchor="middle" x="91" y="-529" font-family="Helvetica,sans-Serif" font-size="10.00">Expand</text>
</g>
<!-- addr&#45;&gt;expand -->
<g id="edge4" class="edge">
<title>addr&#45;&gt;expand</title>
<path fill="none" stroke="#666666" d="M91,-591.81C91,-583.79 91,-574.05 91,-565.07"/>
<polygon fill="#666666" stroke="#666666" points="94.5,-565.03 91,-555.03 87.5,-565.03 94.5,-565.03"/>
</g>
<!-- rank -->
<g id="node6" class="node">
<title>rank</title>
<path fill="#fff9c4" stroke="black" d="M111,-482C111,-482 71,-482 71,-482 65,-482 59,-476 59,-470 59,-470 59,-458 59,-458 59,-452 65,-446 71,-446 71,-446 111,-446 111,-446 117,-446 123,-452 123,-458 123,-458 123,-470 123,-470 123,-476 117,-482 111,-482"/>
<text text-anchor="middle" x="91" y="-467" font-family="Helvetica,sans-Serif" font-size="10.00">Property</text>
<text text-anchor="middle" x="91" y="-456" font-family="Helvetica,sans-Serif" font-size="10.00">Rank</text>
</g>
<!-- expand&#45;&gt;rank -->
<g id="edge5" class="edge">
<title>expand&#45;&gt;rank</title>
<path fill="none" stroke="#666666" d="M91,-518.81C91,-510.79 91,-501.05 91,-492.07"/>
<polygon fill="#666666" stroke="#666666" points="94.5,-492.03 91,-482.03 87.5,-492.03 94.5,-492.03"/>
</g>
<!-- pdrill -->
<g id="node7" class="node">
<title>pdrill</title>
<path fill="#ffe0b2" stroke="black" d="M122,-409C122,-409 60,-409 60,-409 54,-409 48,-403 48,-397 48,-397 48,-385 48,-385 48,-379 54,-373 60,-373 60,-373 122,-373 122,-373 128,-373 134,-379 134,-385 134,-385 134,-397 134,-397 134,-403 128,-409 122,-409"/>
<text text-anchor="middle" x="91" y="-394" font-family="Helvetica,sans-Serif" font-size="10.00">Portfolio</text>
<text text-anchor="middle" x="91" y="-383" font-family="Helvetica,sans-Serif" font-size="10.00">Drill Intestati</text>
</g>
<!-- rank&#45;&gt;pdrill -->
<g id="edge6" class="edge">
<title>rank&#45;&gt;pdrill</title>
<path fill="none" stroke="#666666" d="M91,-445.81C91,-437.79 91,-428.05 91,-419.07"/>
<polygon fill="#666666" stroke="#666666" points="94.5,-419.03 91,-409.03 87.5,-419.03 94.5,-419.03"/>
</g>
<!-- history -->
<g id="node8" class="node">
<title>history</title>
<path fill="#ffe0b2" stroke="black" d="M111,-336C111,-336 71,-336 71,-336 65,-336 59,-330 59,-324 59,-324 59,-312 59,-312 59,-306 65,-300 71,-300 71,-300 111,-300 111,-300 117,-300 123,-306 123,-312 123,-312 123,-324 123,-324 123,-330 117,-336 111,-336"/>
<text text-anchor="middle" x="91" y="-321" font-family="Helvetica,sans-Serif" font-size="10.00">Portfolio</text>
<text text-anchor="middle" x="91" y="-310" font-family="Helvetica,sans-Serif" font-size="10.00">History</text>
</g>
<!-- pdrill&#45;&gt;history -->
<g id="edge7" class="edge">
<title>pdrill&#45;&gt;history</title>
<path fill="none" stroke="#666666" d="M91,-372.81C91,-364.79 91,-355.05 91,-346.07"/>
<polygon fill="#666666" stroke="#666666" points="94.5,-346.03 91,-336.03 87.5,-346.03 94.5,-346.03"/>
</g>
<!-- timeline -->
<g id="node9" class="node">
<title>timeline</title>
<path fill="#ffe0b2" stroke="black" d="M111.5,-263C111.5,-263 70.5,-263 70.5,-263 64.5,-263 58.5,-257 58.5,-251 58.5,-251 58.5,-239 58.5,-239 58.5,-233 64.5,-227 70.5,-227 70.5,-227 111.5,-227 111.5,-227 117.5,-227 123.5,-233 123.5,-239 123.5,-239 123.5,-251 123.5,-251 123.5,-257 117.5,-263 111.5,-263"/>
<text text-anchor="middle" x="91" y="-248" font-family="Helvetica,sans-Serif" font-size="10.00">Timeline</text>
<text text-anchor="middle" x="91" y="-237" font-family="Helvetica,sans-Serif" font-size="10.00">Build</text>
</g>
<!-- history&#45;&gt;timeline -->
<g id="edge8" class="edge">
<title>history&#45;&gt;timeline</title>
<path fill="none" stroke="#666666" d="M91,-299.81C91,-291.79 91,-282.05 91,-273.07"/>
<polygon fill="#666666" stroke="#666666" points="94.5,-273.03 91,-263.03 87.5,-273.03 94.5,-273.03"/>
</g>
<!-- ipotecaria -->
<g id="node10" class="node">
<title>ipotecaria</title>
<path fill="#ffcdd2" stroke="black" d="M68,-182C68,-182 12,-182 12,-182 6,-182 0,-176 0,-170 0,-170 0,-158 0,-158 0,-152 6,-146 12,-146 12,-146 68,-146 68,-146 74,-146 80,-152 80,-158 80,-158 80,-170 80,-170 80,-176 74,-182 68,-182"/>
<text text-anchor="middle" x="40" y="-167" font-family="Helvetica,sans-Serif" font-size="10.00">Portfolio</text>
<text text-anchor="middle" x="40" y="-156" font-family="Helvetica,sans-Serif" font-size="10.00">Ipotecaria €</text>
</g>
<!-- timeline&#45;&gt;ipotecaria -->
<g id="edge9" class="edge">
<title>timeline&#45;&gt;ipotecaria</title>
<path fill="none" stroke="#666666" stroke-dasharray="5,2" d="M79.93,-226.86C73.12,-216.3 64.25,-202.56 56.6,-190.71"/>
<polygon fill="#666666" stroke="#666666" points="59.41,-188.61 51.04,-182.11 53.53,-192.41 59.41,-188.61"/>
<text text-anchor="middle" x="77.5" y="-202.6" font-family="Helvetica,sans-Serif" font-size="8.00">paid</text>
</g>
<!-- risk -->
<g id="node11" class="node">
<title>risk</title>
<path fill="#e8eaf6" stroke="black" d="M89,-109C89,-109 59,-109 59,-109 53,-109 47,-103 47,-97 47,-97 47,-85 47,-85 47,-79 53,-73 59,-73 59,-73 89,-73 89,-73 95,-73 101,-79 101,-85 101,-85 101,-97 101,-97 101,-103 95,-109 89,-109"/>
<text text-anchor="middle" x="74" y="-94" font-family="Helvetica,sans-Serif" font-size="10.00">Risk</text>
<text text-anchor="middle" x="74" y="-83" font-family="Helvetica,sans-Serif" font-size="10.00">Score</text>
</g>
<!-- timeline&#45;&gt;risk -->
<g id="edge11" class="edge">
<title>timeline&#45;&gt;risk</title>
<path fill="none" stroke="#666666" d="M91.15,-226.86C91.18,-218.72 91.16,-208.86 91,-200 90.56,-175.99 92.68,-169.73 89,-146 87.62,-137.11 85.28,-127.61 82.86,-119.08"/>
<polygon fill="#666666" stroke="#666666" points="86.14,-117.85 79.91,-109.28 79.44,-119.87 86.14,-117.85"/>
</g>
<!-- ipotecaria&#45;&gt;risk -->
<g id="edge10" class="edge">
<title>ipotecaria&#45;&gt;risk</title>
<path fill="none" stroke="#666666" stroke-dasharray="5,2" d="M48.23,-145.81C52.2,-137.53 57.04,-127.41 61.46,-118.19"/>
<polygon fill="#666666" stroke="#666666" points="64.68,-119.56 65.85,-109.03 58.37,-116.54 64.68,-119.56"/>
</g>
<!-- done -->
<g id="node12" class="node">
<title>done</title>
<ellipse fill="#e8f5e9" stroke="black" cx="74" cy="-18" rx="31.4" ry="18"/>
<text text-anchor="middle" x="74" y="-15.5" font-family="Helvetica,sans-Serif" font-size="10.00">Done</text>
</g>
<!-- risk&#45;&gt;done -->
<g id="edge12" class="edge">
<title>risk&#45;&gt;done</title>
<path fill="none" stroke="#666666" d="M74,-72.81C74,-64.79 74,-55.05 74,-46.07"/>
<polygon fill="#666666" stroke="#666666" points="77.5,-46.03 74,-36.03 70.5,-46.03 77.5,-46.03"/>
</g>
</g>
</svg>
