<?xml version="1.0" encoding="UTF-8" standalone="no"?>
<!DOCTYPE svg PUBLIC "-//W3C//DTD SVG 1.1//EN"
 "http://www.w3.org/Graphics/SVG/1.1/DTD/svg11.dtd">
<!-- Generated by graphviz version 2.43.0 (0)
 -->
<!-- Title: full_due_diligence Pages: 1 -->
<svg width="132pt" height="951pt"
 viewBox="0.00 0.00 132.00 951.00" xmlns="http://www.w3.org/2000/svg" xmlns:xlink="http://www.w3.org/1999/xlink">
<g id="graph0" class="graph" transform="scale(1 1) rotate(0) translate(4 947)">
<title>full_due_diligence</title>
<polygon fill="white" stroke="transparent" points="-4,4 -4,-947 128,-947 128,4 -4,4"/>
<g id="clust1" class="cluster">
<title>cluster_hop0</title>
<polygon fill="none" stroke="#b3b3b3" stroke-dasharray="5,2" points="25,-737 25,-880 105,-880 105,-737 25,-737"/>
<text text-anchor="middle" x="65" y="-868.8" font-family="Helvetica,sans-Serif" font-size="9.00">Hop 0: Seed</text>
</g>
<g id="clust2" class="cluster">
<title>cluster_hop1</title>
<polygon fill="none" stroke="#b3b3b3" stroke-dasharray="5,2" points="25,-648 25,-718 105,-718 105,-648 25,-648"/>
<text text-anchor="middle" x="65" y="-706.8" font-family="Helvetica,sans-Serif" font-size="9.00">Hop 1: Parcel</text>
</g>
<g id="clust3" class="cluster">
<title>cluster_hop2</title>
<polygon fill="none" stroke="#b3b3b3" stroke-dasharray="5,2" points="24,-559 24,-629 107,-629 107,-559 24,-559"/>
<text text-anchor="middle" x="65.5" y="-617.8" font-family="Helvetica,sans-Serif" font-size="9.00">Hop 2: Owners</text>
</g>
<g id="clust4" class="cluster">
<title>cluster_hop3</title>
<polygon fill="none" stroke="#b3b3b3" stroke-dasharray="5,2" points="14,-397 14,-467 116,-467 116,-397 14,-397"/>
<text text-anchor="middle" x="65" y="-455.8" font-family="Helvetica,sans-Serif" font-size="9.00">Hop 3: Portfolios</text>
</g>
<g id="clust5" class="cluster">
<title>cluster_hop4</title>
<polygon fill="none" stroke="#b3b3b3" stroke-dasharray="5,2" points="24,-235 24,-378 106,-378 106,-235 24,-235"/>
<text text-anchor="middle" x="65" y="-366.8" font-family="Helvetica,sans-Serif" font-size="9.00">Hop 4: History</text>
</g>
<g id="clust6" class="cluster">
<title>cluster_hop5</title>
<polygon fill="none" stroke="#b3b3b3" stroke-dasharray="5,2" points="8,-138 8,-208 104,-208 104,-138 8,-138"/>
<text text-anchor="middle" x="56" y="-196.8" font-family="Helvetica,sans-Serif" font-size="9.00">Hop 5: Paid</text>
</g>
<!-- start -->
<g id="node1" class="node">
<title>start</title>
<ellipse fill="#e3f2fd" stroke="black" cx="65" cy="-925" rx="29.8" ry="18"/>
<text text-anchor="middle" x="65" y="-922.5" font-family="Helvetica,sans-Serif" font-size="10.00">Start</text>
</g>
<!-- search -->
<g id="node2" class="node">
<title>search</title>
<path fill="#bbdefb" stroke="black" d="M81,-854C81,-854 49,-854 49,-854 43,-854 37,-848 37,-842 37,-842 37,-830 37,-830 37,-824 43,-818 49,-818 49,-818 81,-818 81,-818 87,-818 93,-824 93,-830 93,-830 93,-842 93,-842 93,-848 87,-854 81,-854"/>
<text text-anchor="middle" x="65" y="-833.5" font-family="Helvetica,sans-Serif" font-size="10.00">Search</text>
</g>
<!-- start&#45;&gt;search -->
<g id="edge1" class="edge">
<title>start&#45;&gt;search</title>
<path fill="none" stroke="#666666" d="M65,-906.81C65,-894.66 65,-878.11 65,-864.18"/>
<polygon fill="#666666" stroke="#666666" points="68.5,-864.15 65,-854.15 61.5,-864.15 68.5,-864.15"/>
</g>
<!-- intestati -->
<g id="node3" class="node">
<title>intestati</title>
<path fill="#bbdefb" stroke="black" d="M84.5,-781C84.5,-781 45.5,-781 45.5,-781 39.5,-781 33.5,-775 33.5,-769 33.5,-769 33.5,-757 33.5,-757 33.5,-751 39.5,-745 45.5,-745 45.5,-745 84.5,-745 84.5,-745 90.5,-745 96.5,-751 96.5,-757 96.5,-757 96.5,-769 96.5,-769 96.5,-775 90.5,-781 84.5,-781"/>
<text text-anchor="middle" x="65" y="-760.5" font-family="Helvetica,sans-Serif" font-size="10.00">Intestati</text>
</g>
<!-- search&#45;&gt;intestati -->
<g id="edge2" class="edge">
<title>search&#45;&gt;intestati</title>
<path fill="none" stroke="#666666" d="M65,-817.81C65,-809.79 65,-800.05 65,-791.07"/>
<polygon fill="#666666" stroke="#666666" points="68.5,-791.03 65,-781.03 61.5,-791.03 68.5,-791.03"/>
</g>
<!-- drill -->
<g id="node4" class="node">
<title>drill</title>
<path fill="#c8e6c9" stroke="black" d="M84.5,-692C84.5,-692 45.5,-692 45.5,-692 39.5,-692 33.5,-686 33.5,-680 33.5,-680 33.5,-668 33.5,-668 33.5,-662 39.5,-656 45.5,-656 45.5,-656 84.5,-656 84.5,-656 90.5,-656 96.5,-662 96.5,-668 96.5,-668 96.5,-680 96.5,-680 96.5,-686 90.5,-692 84.5,-692"/>
<text text-anchor="middle" x="65" y="-677" font-family="Helvetica,sans-Serif" font-size="10.00">Drill</text>
<text text-anchor="middle" x="65" y="-666" font-family="Helvetica,sans-Serif" font-size="10.00">Intestati</text>
</g>
<!-- intestati&#45;&gt;drill -->
<g id="edge3" class="edge">
<title>intestati&#45;&gt;drill</title>
<path fill="none" stroke="#666666" d="M65,-744.81C65,-732.66 65,-716.11 65,-702.18"/>
<polygon fill="#666666" stroke="#666666" points="68.5,-702.15 65,-692.15 61.5,-702.15 68.5,-702.15"/>
</g>
<!-- expand -->
<g id="node5" class="node">
<title>expand</title>
<path fill="#c8e6c9" stroke="black" d="M82.5,-603C82.5,-603 47.5,-603 47.5,-603 41.5,-603 35.5,-597 35.5,-591 35.5,-591 35.5,-579 35.5,-579 35.5,-573 41.5,-567 47.5,-567 47.5,-567 82.5,-567 82.5,-567 88.5,-567 94.5,-573 94.5,-579 94.5,-579 94.5,-591 94.5,-591 94.5,-597 88.5,-603 82.5,-603"/>
<text text-anchor="middle" x="65" y="-588" font-family="Helvetica,sans-Serif" font-size="10.00">Owner</text>
<text text-anchor="middle" x="65" y="-577" font-family="Helvetica,sans-Serif" font-size="10.00">Expand</text>
</g>
<!-- drill&#45;&gt;expand -->
<g id="edge4" class="edge">
<title>drill&#45;&gt;expand</title>
<path fill="none" stroke="#666666" d="M65,-655.81C65,-643.66 65,-627.11 65,-613.18"/>
<polygon fill="#666666" stroke="#666666" points="68.5,-613.15 65,-603.15 61.5,-613.15 68.5,-613.15"/>
</g>
<!-- rank -->
<g id="node6" class="node">
<title>rank</title>
<path fill="#fff9c4" stroke="black" d="M85,-530C85,-530 45,-530 45,-530 39,-530 33,-524 33,-518 33,-518 33,-506 33,-506 33,-500 39,-494 45,-494 45,-494 85,-494 85,-494 91,-494 97,-500 97,-506 97,-506 97,-518 97,-518 97,-524 91,-530 85,-530"/>
<text text-anchor="middle" x="65" y="-515" font-family="Helvetica,sans-Serif" font-size="10.00">Property</text>
<text text-anchor="middle" x="65" y="-504" font-family="Helvetica,sans-Serif" font-size="10.00">Rank</text>
</g>
<!-- expand&#45;&gt;rank -->
<g id="edge5" class="edge">
<title>expand&#45;&gt;rank</title>
<path fill="none" stroke="#666666" d="M65,-566.81C65,-558.79 65,-549.05 65,-540.07"/>
<polygon fill="#666666" stroke="#666666" points="68.5,-540.03 65,-530.03 61.5,-540.03 68.5,-540.03"/>
</g>
<!-- pdrill -->
<g id="node7" class="node">
<title>pdrill</title>
<path fill="#ffe0b2" stroke="black" d="M96,-441C96,-441 34,-441 34,-441 28,-441 22,-435 22,-429 22,-429 22,-417 22,-417 22,-411 28,-405 34,-405 34,-405 96,-405 96,-405 102,-405 108,-411 108,-417 108,-417 108,-429 108,-429 108,-435 102,-441 96,-441"/>
<text text-anchor="middle" x="65" y="-426" font-family="Helvetica,sans-Serif" font-size="10.00">Portfolio</text>
<text text-anchor="middle" x="65" y="-415" font-family="Helvetica,sans-Serif" font-size="10.00">Drill Intestati</text>
</g>
<!-- rank&#45;&gt;pdrill -->
<g id="edge6" class="edge">
<title>rank&#45;&gt;pdrill</title>
<path fill="none" stroke="#666666" d="M65,-493.81C65,-481.66 65,-465.11 65,-451.18"/>
<polygon fill="#666666" stroke="#666666" points="68.5,-451.15 65,-441.15 61.5,-451.15 68.5,-451.15"/>
</g>
<!-- history -->
<g id="node8" class="node">
<title>history</title>
<path fill="#ffe0b2" stroke="black" d="M85,-352C85,-352 45,-352 45,-352 39,-352 33,-346 33,-340 33,-340 33,-328 33,-328 33,-322 39,-316 45,-316 45,-316 85,-316 85,-316 91,-316 97,-322 97,-328 97,-328 97,-340 97,-340 97,-346 91,-352 85,-352"/>
<text text-anchor="middle" x="65" y="-337" font-family="Helvetica,sans-Serif" font-size="10.00">Portfolio</text>
<text text-anchor="middle" x="65" y="-326" font-family="Helvetica,sans-Serif" font-size="10.00">History</text>
</g>
<!-- pdrill&#45;&gt;history -->
<g id="edge7" class="edge">
<title>pdrill&#45;&gt;history</title>
<path fill="none" stroke="#666666" d="M65,-404.81C65,-392.66 65,-376.11 65,-362.18"/>
<polygon fill="#666666" stroke="#666666" points="68.5,-362.15 65,-352.15 61.5,-362.15 68.5,-362.15"/>
</g>
<!-- timeline -->
<g id="node9" class="node">
<title>timeline</title>
<path fill="#ffe0b2" stroke="black" d="M85.5,-279C85.5,-279 44.5,-279 44.5,-279 38.5,-279 32.5,-273 32.5,-267 32.5,-267 32.5,-255 32.5,-255 32.5,-249 38.5,-243 44.5,-243 44.5,-243 85.5,-243 85.5,-243 91.5,-243 97.5,-249 97.5,-255 97.5,-255 97.5,-267 97.5,-267 97.5,-273 91.5,-279 85.5,-279"/>
<text text-anchor="middle" x="65" y="-264" font-family="Helvetica,sans-Serif" font-size="10.00">Timeline</text>
<text text-anchor="middle" x="65" y="-253" font-family="Helvetica,sans-Serif" font-size="10.00">Build</text>
</g>
<!-- history&#45;&gt;timeline -->
<g id="edge8" class="edge">
<title>history&#45;&gt;timeline</title>
<path fill="none" stroke="#666666" d="M65,-315.81C65,-307.79 65,-298.05 65,-289.07"/>
<polygon fill="#666666" stroke="#666666" points="68.5,-289.03 65,-279.03 61.5,-289.03 68.5,-289.03"/>
</g>
<!-- ipotecaria -->
<g id="node10" class="node">
<title>ipotecaria</title>
<path fill="#ffcdd2" stroke="black" d="M84,-182C84,-182 28,-182 28,-182 22,-182 16,-176 16,-170 16,-170 16,-158 16,-158 16,-152 22,-146 28,-146 28,-146 84,-146 84,-146 90,-146 96,-152 96,-158 96,-158 96,-170 96,-170 96,-176 90,-182 84,-182"/>
<text text-anchor="middle" x="56" y="-167" font-family="Helvetica,sans-Serif" font-size="10.00">Portfolio</text>
<text text-anchor="middle" x="56" y="-156" font-family="Helvetica,sans-Serif" font-size="10.00">Ipotecaria €</text>
</g>
<!-- timeline&#45;&gt;ipotecaria -->
<g id="edge9" class="edge">
<title>timeline&#45;&gt;ipotecaria</title>
<path fill="none" stroke="#666666" stroke-dasharray="5,2" d="M63.35,-242.58C62.02,-228.51 60.12,-208.48 58.59,-192.29"/>
<polygon fill="#666666" stroke="#666666" points="62.07,-191.94 57.64,-182.31 55.1,-192.6 62.07,-191.94"/>
<text text-anchor="middle" x="70.5" y="-218.6" font-family="Helvetica,sans-Serif" font-size="8.00">paid</text>
</g>
<!-- risk -->
<g id="node11" class="node">
<title>risk</title>
<path fill="#e8eaf6" stroke="black" d="M105,-109C105,-109 75,-109 75,-109 69,-109 63,-103 63,-97 63,-97 63,-85 63,-85 63,-79 69,-73 75,-73 75,-73 105,-73 105,-73 111,-73 117,-79 117,-85 117,-85 117,-97 117,-97 117,-103 111,-109 105,-109"/>
<text text-anchor="middle" x="90" y="-94" font-family="Helvetica,sans-Serif" font-size="10.00">Risk</text>
<text text-anchor="middle" x="90" y="-83" font-family="Helvetica,sans-Serif" font-size="10.00">Score</text>
</g>
<!-- timeline&#45;&gt;risk -->
<g id="edge11" class="edge">
<title>timeline&#45;&gt;risk</title>
<path fill="none" stroke="#666666" d="M84.48,-242.76C93.49,-233.48 103.24,-221.23 108,-208 118.54,-178.73 113.77,-168.57 108,-138 106.77,-131.47 104.64,-124.69 102.26,-118.39"/>
<polygon fill="#666666" stroke="#666666" points="105.45,-116.95 98.42,-109.02 98.97,-119.6 105.45,-116.95"/>
</g>
<!-- ipotecaria&#45;&gt;risk -->
<g id="edge10" class="edge">
<title>ipotecaria&#45;&gt;risk</title>
<path fill="none" stroke="#666666" stroke-dasharray="5,2" d="M64.23,-145.81C68.2,-137.53 73.04,-127.41 77.46,-118.19"/>
<polygon fill="#666666" stroke="#666666" points="80.68,-119.56 81.85,-109.03 74.37,-116.54 80.68,-119.56"/>
</g>
<!-- done -->
<g id="node12" class="node">
<title>done</title>
<ellipse fill="#e8f5e9" stroke="black" cx="90" cy="-18" rx="31.4" ry="18"/>
<text text-anchor="middle" x="90" y="-15.5" font-family="Helvetica,sans-Serif" font-size="10.00">Done</text>
</g>
<!-- risk&#45;&gt;done -->
<g id="edge12" class="edge">
<title>risk&#45;&gt;done</title>
<path fill="none" stroke="#666666" d="M90,-72.81C90,-64.79 90,-55.05 90,-46.07"/>
<polygon fill="#666666" stroke="#666666" points="93.5,-46.03 90,-36.03 86.5,-46.03 93.5,-46.03"/>
</g>
</g>
</svg>
