<?xml version="1.0" encoding="UTF-8" standalone="no"?>
<!DOCTYPE svg PUBLIC "-//W3C//DTD SVG 1.1//EN"
 "http://www.w3.org/Graphics/SVG/1.1/DTD/svg11.dtd">
<!-- Generated by graphviz version 2.43.0 (0)
 -->
<!-- Title: indirizzo Pages: 1 -->
<svg width="135pt" height="499pt"
 viewBox="0.00 0.00 134.50 498.54" xmlns="http://www.w3.org/2000/svg" xmlns:xlink="http://www.w3.org/1999/xlink">
<g id="graph0" class="graph" transform="scale(1 1) rotate(0) translate(4 494.54)">
<title>indirizzo</title>
<polygon fill="white" stroke="transparent" points="-4,4 -4,-494.54 130.5,-494.54 130.5,4 -4,4"/>
<!-- start -->
<g id="node1" class="node">
<title>start</title>
<ellipse fill="#e3f2fd" stroke="black" cx="70.5" cy="-472.15" rx="39.7" ry="18.27"/>
<text text-anchor="middle" x="70.5" y="-469.35" font-family="Helvetica,sans-Serif" font-size="11.00">Start</text>
</g>
<!-- addr -->
<g id="node2" class="node">
<title>addr</title>
<path fill="#bbdefb" stroke="black" d="M95,-416.77C95,-416.77 46,-416.77 46,-416.77 40,-416.77 34,-410.77 34,-404.77 34,-404.77 34,-390.77 34,-390.77 34,-384.77 40,-378.77 46,-378.77 46,-378.77 95,-378.77 95,-378.77 101,-378.77 107,-384.77 107,-390.77 107,-390.77 107,-404.77 107,-404.77 107,-410.77 101,-416.77 95,-416.77"/>
<text text-anchor="middle" x="70.5" y="-400.97" font-family="Helvetica,sans-Serif" font-size="11.00">Address</text>
<text text-anchor="middle" x="70.5" y="-388.97" font-family="Helvetica,sans-Serif" font-size="11.00">Search</text>
</g>
<!-- start&#45;&gt;addr -->
<g id="edge1" class="edge">
<title>start&#45;&gt;addr</title>
<path fill="none" stroke="#666666" d="M70.5,-453.63C70.5,-445.63 70.5,-435.96 70.5,-426.97"/>
<polygon fill="#666666" stroke="#666666" points="74,-426.89 70.5,-416.89 67,-426.89 74,-426.89"/>
</g>
<!-- search -->
<g id="node3" class="node">
<title>search</title>
<path fill="#bbdefb" stroke="black" d="M91.5,-341.77C91.5,-341.77 49.5,-341.77 49.5,-341.77 43.5,-341.77 37.5,-335.77 37.5,-329.77 37.5,-329.77 37.5,-317.77 37.5,-317.77 37.5,-311.77 43.5,-305.77 49.5,-305.77 49.5,-305.77 91.5,-305.77 91.5,-305.77 97.5,-305.77 103.5,-311.77 103.5,-317.77 103.5,-317.77 103.5,-329.77 103.5,-329.77 103.5,-335.77 97.5,-341.77 91.5,-341.77"/>
<text text-anchor="middle" x="70.5" y="-320.97" font-family="Helvetica,sans-Serif" font-size="11.00">Search</text>
</g>
<!-- addr&#45;&gt;search -->
<g id="edge2" class="edge">
<title>addr&#45;&gt;search</title>
<path fill="none" stroke="#666666" d="M70.5,-378.6C70.5,-370.66 70.5,-361.18 70.5,-352.4"/>
<polygon fill="#666666" stroke="#666666" points="74,-352.19 70.5,-342.19 67,-352.19 74,-352.19"/>
</g>
<!-- intestati -->
<g id="node4" class="node">
<title>intestati</title>
<path fill="#bbdefb" stroke="black" d="M95.5,-268.77C95.5,-268.77 45.5,-268.77 45.5,-268.77 39.5,-268.77 33.5,-262.77 33.5,-256.77 33.5,-256.77 33.5,-244.77 33.5,-244.77 33.5,-238.77 39.5,-232.77 45.5,-232.77 45.5,-232.77 95.5,-232.77 95.5,-232.77 101.5,-232.77 107.5,-238.77 107.5,-244.77 107.5,-244.77 107.5,-256.77 107.5,-256.77 107.5,-262.77 101.5,-268.77 95.5,-268.77"/>
<text text-anchor="middle" x="70.5" y="-247.97" font-family="Helvetica,sans-Serif" font-size="11.00">Intestati</text>
</g>
<!-- search&#45;&gt;intestati -->
<g id="edge3" class="edge">
<title>search&#45;&gt;intestati</title>
<path fill="none" stroke="#666666" d="M70.5,-305.58C70.5,-297.56 70.5,-287.82 70.5,-278.84"/>
<polygon fill="#666666" stroke="#666666" points="74,-278.8 70.5,-268.8 67,-278.8 74,-278.8"/>
</g>
<!-- expand -->
<g id="node5" class="node">
<title>expand</title>
<path fill="#fff9c4" stroke="black" stroke-dasharray="5,2" d="M57,-186.77C57,-186.77 12,-186.77 12,-186.77 6,-186.77 0,-180.77 0,-174.77 0,-174.77 0,-160.77 0,-160.77 0,-154.77 6,-148.77 12,-148.77 12,-148.77 57,-148.77 57,-148.77 63,-148.77 69,-154.77 69,-160.77 69,-160.77 69,-174.77 69,-174.77 69,-180.77 63,-186.77 57,-186.77"/>
<text text-anchor="middle" x="34.5" y="-170.97" font-family="Helvetica,sans-Serif" font-size="11.00">Owner</text>
<text text-anchor="middle" x="34.5" y="-158.97" font-family="Helvetica,sans-Serif" font-size="11.00">Expand</text>
</g>
<!-- intestati&#45;&gt;expand -->
<g id="edge5" class="edge">
<title>intestati&#45;&gt;expand</title>
<path fill="none" stroke="#666666" stroke-dasharray="5,2" d="M62.87,-232.59C58.17,-222.04 52.06,-208.28 46.71,-196.24"/>
<polygon fill="#666666" stroke="#666666" points="49.88,-194.77 42.62,-187.05 43.49,-197.61 49.88,-194.77"/>
<text text-anchor="middle" x="67" y="-207.57" font-family="Helvetica,sans-Serif" font-size="9.00">deep</text>
</g>
<!-- risk -->
<g id="node6" class="node">
<title>risk</title>
<path fill="#e8eaf6" stroke="black" d="M87,-111.77C87,-111.77 52,-111.77 52,-111.77 46,-111.77 40,-105.77 40,-99.77 40,-99.77 40,-85.77 40,-85.77 40,-79.77 46,-73.77 52,-73.77 52,-73.77 87,-73.77 87,-73.77 93,-73.77 99,-79.77 99,-85.77 99,-85.77 99,-99.77 99,-99.77 99,-105.77 93,-111.77 87,-111.77"/>
<text text-anchor="middle" x="69.5" y="-95.97" font-family="Helvetica,sans-Serif" font-size="11.00">Risk</text>
<text text-anchor="middle" x="69.5" y="-83.97" font-family="Helvetica,sans-Serif" font-size="11.00">Score</text>
</g>
<!-- intestati&#45;&gt;risk -->
<g id="edge4" class="edge">
<title>intestati&#45;&gt;risk</title>
<path fill="none" stroke="#666666" d="M77.64,-232.62C79.63,-227.03 81.51,-220.73 82.5,-214.77 87.79,-183.04 82.19,-146.25 76.78,-121.65"/>
<polygon fill="#666666" stroke="#666666" points="80.19,-120.84 74.51,-111.9 73.37,-122.43 80.19,-120.84"/>
<text text-anchor="middle" x="106" y="-165.57" font-family="Helvetica,sans-Serif" font-size="9.00">standard</text>
</g>
<!-- expand&#45;&gt;risk -->
<g id="edge6" class="edge">
<title>expand&#45;&gt;risk</title>
<path fill="none" stroke="#666666" stroke-dasharray="5,2" d="M43.15,-148.72C47.15,-140.39 51.98,-130.31 56.41,-121.07"/>
<polygon fill="#666666" stroke="#666666" points="59.66,-122.39 60.83,-111.86 53.35,-119.36 59.66,-122.39"/>
</g>
<!-- done -->
<g id="node7" class="node">
<title>done</title>
<ellipse fill="#e8f5e9" stroke="black" cx="69.5" cy="-18.38" rx="40.11" ry="18.27"/>
<text text-anchor="middle" x="69.5" y="-15.58" font-family="Helvetica,sans-Serif" font-size="11.00">Done</text>
</g>
<!-- risk&#45;&gt;done -->
<g id="edge7" class="edge">
<title>risk&#45;&gt;done</title>
<path fill="none" stroke="#666666" d="M69.5,-73.5C69.5,-65.52 69.5,-55.99 69.5,-47.16"/>
<polygon fill="#666666" stroke="#666666" points="73,-46.9 69.5,-36.9 66,-46.9 73,-46.9"/>
</g>
</g>
</svg>
