<?xml version="1.0" encoding="UTF-8" standalone="no"?>
<!DOCTYPE svg PUBLIC "-//W3C//DTD SVG 1.1//EN"
 "http://www.w3.org/Graphics/SVG/1.1/DTD/svg11.dtd">
<!-- Generated by graphviz version 2.43.0 (0)
 -->
<!-- Title: indirizzo Pages: 1 -->
<svg width="160pt" height="445pt"
 viewBox="0.00 0.00 159.50 444.54" xmlns="http://www.w3.org/2000/svg" xmlns:xlink="http://www.w3.org/1999/xlink">
<g id="graph0" class="graph" transform="scale(1 1) rotate(0) translate(4 440.54)">
<title>indirizzo</title>
<polygon fill="white" stroke="transparent" points="-4,4 -4,-440.54 155.5,-440.54 155.5,4 -4,4"/>
<!-- start -->
<g id="node1" class="node">
<title>start</title>
<ellipse fill="#e3f2fd" stroke="black" cx="82.5" cy="-418.15" rx="39.7" ry="18.27"/>
<text text-anchor="middle" x="82.5" y="-415.35" font-family="Helvetica,sans-Serif" font-size="11.00">Start</text>
</g>
<!-- addr -->
<g id="node2" class="node">
<title>addr</title>
<path fill="#bbdefb" stroke="black" d="M107,-362.77C107,-362.77 58,-362.77 58,-362.77 52,-362.77 46,-356.77 46,-350.77 46,-350.77 46,-336.77 46,-336.77 46,-330.77 52,-324.77 58,-324.77 58,-324.77 107,-324.77 107,-324.77 113,-324.77 119,-330.77 119,-336.77 119,-336.77 119,-350.77 119,-350.77 119,-356.77 113,-362.77 107,-362.77"/>
<text text-anchor="middle" x="82.5" y="-346.97" font-family="Helvetica,sans-Serif" font-size="11.00">Address</text>
<text text-anchor="middle" x="82.5" y="-334.97" font-family="Helvetica,sans-Serif" font-size="11.00">Search</text>
</g>
<!-- start&#45;&gt;addr -->
<g id="edge1" class="edge">
<title>start&#45;&gt;addr</title>
<path fill="none" stroke="#666666" d="M82.5,-399.63C82.5,-391.63 82.5,-381.96 82.5,-372.97"/>
<polygon fill="#666666" stroke="#666666" points="86,-372.89 82.5,-362.89 79,-372.89 86,-372.89"/>
</g>
<!-- search -->
<g id="node3" class="node">
<title>search</title>
<path fill="#bbdefb" stroke="black" d="M131.5,-268.77C131.5,-268.77 33.5,-268.77 33.5,-268.77 27.5,-268.77 21.5,-262.77 21.5,-256.77 21.5,-256.77 21.5,-242.77 21.5,-242.77 21.5,-236.77 27.5,-230.77 33.5,-230.77 33.5,-230.77 131.5,-230.77 131.5,-230.77 137.5,-230.77 143.5,-236.77 143.5,-242.77 143.5,-242.77 143.5,-256.77 143.5,-256.77 143.5,-262.77 137.5,-268.77 131.5,-268.77"/>
<text text-anchor="middle" x="82.5" y="-252.97" font-family="Helvetica,sans-Serif" font-size="11.00">Search</text>
<text text-anchor="middle" x="82.5" y="-240.97" font-family="Helvetica,sans-Serif" font-size="11.00">(resolved parcel)</text>
</g>
<!-- addr&#45;&gt;search -->
<g id="edge2" class="edge">
<title>addr&#45;&gt;search</title>
<path fill="none" stroke="#666666" d="M82.5,-324.59C82.5,-311.61 82.5,-293.9 82.5,-279.08"/>
<polygon fill="#666666" stroke="#666666" points="86,-278.91 82.5,-268.91 79,-278.91 86,-278.91"/>
<text text-anchor="middle" x="117" y="-299.57" font-family="Helvetica,sans-Serif" font-size="9.00">foglio/particella</text>
<text text-anchor="middle" x="117" y="-289.57" font-family="Helvetica,sans-Serif" font-size="9.00">extracted</text>
</g>
<!-- intestati -->
<g id="node4" class="node">
<title>intestati</title>
<path fill="#bbdefb" stroke="black" d="M107.5,-193.77C107.5,-193.77 57.5,-193.77 57.5,-193.77 51.5,-193.77 45.5,-187.77 45.5,-181.77 45.5,-181.77 45.5,-169.77 45.5,-169.77 45.5,-163.77 51.5,-157.77 57.5,-157.77 57.5,-157.77 107.5,-157.77 107.5,-157.77 113.5,-157.77 119.5,-163.77 119.5,-169.77 119.5,-169.77 119.5,-181.77 119.5,-181.77 119.5,-187.77 113.5,-193.77 107.5,-193.77"/>
<text text-anchor="middle" x="82.5" y="-172.97" font-family="Helvetica,sans-Serif" font-size="11.00">Intestati</text>
</g>
<!-- search&#45;&gt;intestati -->
<g id="edge3" class="edge">
<title>search&#45;&gt;intestati</title>
<path fill="none" stroke="#666666" d="M82.5,-230.6C82.5,-222.66 82.5,-213.18 82.5,-204.4"/>
<polygon fill="#666666" stroke="#666666" points="86,-204.19 82.5,-194.19 79,-204.19 86,-204.19"/>
</g>
<!-- cross -->
<g id="node5" class="node">
<title>cross</title>
<path fill="#fff9c4" stroke="black" stroke-dasharray="5,2" d="M73,-111.77C73,-111.77 12,-111.77 12,-111.77 6,-111.77 0,-105.77 0,-99.77 0,-99.77 0,-85.77 0,-85.77 0,-79.77 6,-73.77 12,-73.77 12,-73.77 73,-73.77 73,-73.77 79,-73.77 85,-79.77 85,-85.77 85,-85.77 85,-99.77 85,-99.77 85,-105.77 79,-111.77 73,-111.77"/>
<text text-anchor="middle" x="42.5" y="-95.97" font-family="Helvetica,sans-Serif" font-size="11.00">Owner</text>
<text text-anchor="middle" x="42.5" y="-83.97" font-family="Helvetica,sans-Serif" font-size="11.00">Expansion</text>
</g>
<!-- intestati&#45;&gt;cross -->
<g id="edge5" class="edge">
<title>intestati&#45;&gt;cross</title>
<path fill="none" stroke="#666666" stroke-dasharray="5,2" d="M74.02,-157.59C68.81,-147.04 62.01,-133.28 56.07,-121.24"/>
<polygon fill="#666666" stroke="#666666" points="59.09,-119.47 51.53,-112.05 52.82,-122.56 59.09,-119.47"/>
<text text-anchor="middle" x="77" y="-132.57" font-family="Helvetica,sans-Serif" font-size="9.00">deep</text>
</g>
<!-- done -->
<g id="node6" class="node">
<title>done</title>
<ellipse fill="#e8f5e9" stroke="black" cx="81.5" cy="-18.38" rx="40.11" ry="18.27"/>
<text text-anchor="middle" x="81.5" y="-15.58" font-family="Helvetica,sans-Serif" font-size="11.00">Done</text>
</g>
<!-- intestati&#45;&gt;done -->
<g id="edge4" class="edge">
<title>intestati&#45;&gt;done</title>
<path fill="none" stroke="#666666" d="M88.33,-157.51C89.98,-151.91 91.57,-145.64 92.5,-139.77 97.09,-110.79 96.68,-102.93 93.5,-73.77 92.53,-64.89 90.7,-55.33 88.75,-46.74"/>
<polygon fill="#666666" stroke="#666666" points="92.11,-45.76 86.37,-36.86 85.31,-47.4 92.11,-45.76"/>
<text text-anchor="middle" x="117" y="-90.57" font-family="Helvetica,sans-Serif" font-size="9.00">standard</text>
</g>
<!-- cross&#45;&gt;done -->
<g id="edge6" class="edge">
<title>cross&#45;&gt;done</title>
<path fill="none" stroke="#666666" stroke-dasharray="5,2" d="M52.34,-73.5C56.94,-64.96 62.51,-54.63 67.54,-45.3"/>
<polygon fill="#666666" stroke="#666666" points="70.67,-46.87 72.33,-36.4 64.51,-43.54 70.67,-46.87"/>
</g>
</g>
</svg>
