<?xml version="1.0" encoding="UTF-8" standalone="no"?>
<!DOCTYPE svg PUBLIC "-//W3C//DTD SVG 1.1//EN"
 "http://www.w3.org/Graphics/SVG/1.1/DTD/svg11.dtd">
<!-- Generated by graphviz version 2.43.0 (0)
 -->
<!-- Title: patrimonio Pages: 1 -->
<svg width="279pt" height="421pt"
 viewBox="0.00 0.00 279.20 420.74" xmlns="http://www.w3.org/2000/svg" xmlns:xlink="http://www.w3.org/1999/xlink">
<g id="graph0" class="graph" transform="scale(1 1) rotate(0) translate(21.6 399.14)">
<title>patrimonio</title>
<!-- start -->
<g id="node1" class="node">
<title>start</title>
<ellipse fill="#3b82f6" stroke="black" cx="118" cy="-359.15" rx="37.45" ry="18.27"/>
<text text-anchor="middle" x="118" y="-356.35" font-family="Inter" font-size="11.00" fill="white">Start</text>
</g>
<!-- soggetto -->
<g id="node2" class="node">
<title>soggetto</title>
<path fill="#e0e7ff" stroke="black" d="M168.5,-294.77C168.5,-294.77 67.5,-294.77 67.5,-294.77 61.5,-294.77 55.5,-288.77 55.5,-282.77 55.5,-282.77 55.5,-268.77 55.5,-268.77 55.5,-262.77 61.5,-256.77 67.5,-256.77 67.5,-256.77 168.5,-256.77 168.5,-256.77 174.5,-256.77 180.5,-262.77 180.5,-268.77 180.5,-268.77 180.5,-282.77 180.5,-282.77 180.5,-288.77 174.5,-294.77 168.5,-294.77"/>
<text text-anchor="middle" x="118" y="-278.97" font-family="Inter" font-size="11.00">National CF Search</text>
<text text-anchor="middle" x="118" y="-266.97" font-family="Inter" font-size="11.00">(all provinces)</text>
</g>
<!-- start&#45;&gt;soggetto -->
<g id="edge1" class="edge">
<title>start&#45;&gt;soggetto</title>
<path fill="none" stroke="#64748b" d="M118,-340.5C118,-330.19 118,-316.94 118,-305.19"/>
<polygon fill="#64748b" stroke="#64748b" points="121.5,-304.96 118,-294.96 114.5,-304.96 121.5,-304.96"/>
<text text-anchor="middle" x="147.5" y="-315.57" font-family="Inter" font-size="9.00"> codice fiscale</text>
</g>
<!-- properties -->
<g id="node3" class="node">
<title>properties</title>
<path fill="#fef3c7" stroke="black" d="M106.28,-217.19C106.28,-217.19 11.72,-196.35 11.72,-196.35 5.86,-195.06 5.86,-192.48 11.72,-191.19 11.72,-191.19 106.28,-170.35 106.28,-170.35 112.14,-169.06 123.86,-169.06 129.72,-170.35 129.72,-170.35 224.28,-191.19 224.28,-191.19 230.14,-192.48 230.14,-195.06 224.28,-196.35 224.28,-196.35 129.72,-217.19 129.72,-217.19 123.86,-218.48 112.14,-218.48 106.28,-217.19"/>
<text text-anchor="middle" x="118" y="-190.97" font-family="Inter" font-size="11.00">Properties Found</text>
</g>
<!-- soggetto&#45;&gt;properties -->
<g id="edge2" class="edge">
<title>soggetto&#45;&gt;properties</title>
<path fill="none" stroke="#64748b" d="M118,-256.62C118,-248.71 118,-239.16 118,-229.96"/>
<polygon fill="#64748b" stroke="#64748b" points="121.5,-229.82 118,-219.82 114.5,-229.82 121.5,-229.82"/>
</g>
<!-- intestati -->
<g id="node4" class="node">
<title>intestati</title>
<path fill="#dbeafe" stroke="black" d="M113.5,-111.77C113.5,-111.77 32.5,-111.77 32.5,-111.77 26.5,-111.77 20.5,-105.77 20.5,-99.77 20.5,-99.77 20.5,-85.77 20.5,-85.77 20.5,-79.77 26.5,-73.77 32.5,-73.77 32.5,-73.77 113.5,-73.77 113.5,-73.77 119.5,-73.77 125.5,-79.77 125.5,-85.77 125.5,-85.77 125.5,-99.77 125.5,-99.77 125.5,-105.77 119.5,-111.77 113.5,-111.77"/>
<text text-anchor="middle" x="73" y="-95.97" font-family="Inter" font-size="11.00">Owner Lookup</text>
<text text-anchor="middle" x="73" y="-83.97" font-family="Inter" font-size="11.00">(per property)</text>
</g>
<!-- properties&#45;&gt;intestati -->
<g id="edge3" class="edge">
<title>properties&#45;&gt;intestati</title>
<path fill="none" stroke="#64748b" d="M107.56,-169.81C101,-155.38 92.5,-136.67 85.57,-121.43"/>
<polygon fill="#64748b" stroke="#64748b" points="88.6,-119.64 81.28,-111.99 82.23,-122.54 88.6,-119.64"/>
<text text-anchor="middle" x="118.5" y="-142.57" font-family="Inter" font-size="9.00"> for each</text>
<text text-anchor="middle" x="118.5" y="-132.57" font-family="Inter" font-size="9.00"> property</text>
</g>
<!-- done -->
<g id="node5" class="node">
<title>done</title>
<ellipse fill="#22c55e" stroke="black" cx="117" cy="-18.38" rx="44.6" ry="18.27"/>
<text text-anchor="middle" x="117" y="-15.58" font-family="Inter" font-size="11.00" fill="white">Report</text>
</g>
<!-- properties&#45;&gt;done -->
<g id="edge4" class="edge">
<title>properties&#45;&gt;done</title>
<path fill="none" stroke="#64748b" stroke-dasharray="5,2" d="M132.99,-170.93C136.68,-164.41 140.11,-157.05 142,-149.77 151.21,-114.36 139.39,-72.74 129.08,-46.22"/>
<polygon fill="#64748b" stroke="#64748b" points="132.27,-44.77 125.24,-36.84 125.79,-47.42 132.27,-44.77"/>
<text text-anchor="middle" x="169" y="-90.57" font-family="Inter" font-size="9.00"> none found</text>
</g>
<!-- intestati&#45;&gt;done -->
<g id="edge5" class="edge">
<title>intestati&#45;&gt;done</title>
<path fill="none" stroke="#64748b" d="M84.1,-73.5C89.35,-64.87 95.7,-54.42 101.42,-45.01"/>
<polygon fill="#64748b" stroke="#64748b" points="104.45,-46.76 106.66,-36.4 98.47,-43.13 104.45,-46.76"/>
</g>
</g>
</svg>
