<?xml version="1.0" encoding="UTF-8" standalone="no"?>
<!DOCTYPE svg PUBLIC "-//W3C//DTD SVG 1.1//EN"
 "http://www.w3.org/Graphics/SVG/1.1/DTD/svg11.dtd">
<!-- Generated by graphviz version 2.43.0 (0)
 -->
<!-- Title: patrimonio Pages: 1 -->
<svg width="203pt" height="543pt"
 viewBox="0.00 0.00 203.00 542.54" xmlns="http://www.w3.org/2000/svg" xmlns:xlink="http://www.w3.org/1999/xlink">
<g id="graph0" class="graph" transform="scale(1 1) rotate(0) translate(4 538.54)">
<title>patrimonio</title>
<polygon fill="white" stroke="transparent" points="-4,4 -4,-538.54 199,-538.54 199,4 -4,4"/>
<!-- start -->
<g id="node1" class="node">
<title>start</title>
<ellipse fill="#e3f2fd" stroke="black" cx="125" cy="-516.15" rx="39.7" ry="18.27"/>
<text text-anchor="middle" x="125" y="-513.35" font-family="Helvetica,sans-Serif" font-size="11.00">Start</text>
</g>
<!-- soggetto -->
<g id="node2" class="node">
<title>soggetto</title>
<path fill="#bbdefb" stroke="black" d="M183,-460.77C183,-460.77 67,-460.77 67,-460.77 61,-460.77 55,-454.77 55,-448.77 55,-448.77 55,-434.77 55,-434.77 55,-428.77 61,-422.77 67,-422.77 67,-422.77 183,-422.77 183,-422.77 189,-422.77 195,-428.77 195,-434.77 195,-434.77 195,-448.77 195,-448.77 195,-454.77 189,-460.77 183,-460.77"/>
<text text-anchor="middle" x="125" y="-444.97" font-family="Helvetica,sans-Serif" font-size="11.00">Soggetto</text>
<text text-anchor="middle" x="125" y="-432.97" font-family="Helvetica,sans-Serif" font-size="11.00">(national CF search)</text>
</g>
<!-- start&#45;&gt;soggetto -->
<g id="edge1" class="edge">
<title>start&#45;&gt;soggetto</title>
<path fill="none" stroke="#666666" d="M125,-497.63C125,-489.63 125,-479.96 125,-470.97"/>
<polygon fill="#666666" stroke="#666666" points="128.5,-470.89 125,-460.89 121.5,-470.89 128.5,-470.89"/>
</g>
<!-- drill -->
<g id="node3" class="node">
<title>drill</title>
<path fill="#c8e6c9" stroke="black" d="M166.5,-366.77C166.5,-366.77 83.5,-366.77 83.5,-366.77 77.5,-366.77 71.5,-360.77 71.5,-354.77 71.5,-354.77 71.5,-328.77 71.5,-328.77 71.5,-322.77 77.5,-316.77 83.5,-316.77 83.5,-316.77 166.5,-316.77 166.5,-316.77 172.5,-316.77 178.5,-322.77 178.5,-328.77 178.5,-328.77 178.5,-354.77 178.5,-354.77 178.5,-360.77 172.5,-366.77 166.5,-366.77"/>
<text text-anchor="middle" x="125" y="-350.97" font-family="Helvetica,sans-Serif" font-size="11.00">Drill&#45;down</text>
<text text-anchor="middle" x="125" y="-338.97" font-family="Helvetica,sans-Serif" font-size="11.00">Intestati</text>
<text text-anchor="middle" x="125" y="-326.97" font-family="Helvetica,sans-Serif" font-size="11.00">(per property)</text>
</g>
<!-- soggetto&#45;&gt;drill -->
<g id="edge2" class="edge">
<title>soggetto&#45;&gt;drill</title>
<path fill="none" stroke="#666666" d="M125,-422.34C125,-409.63 125,-392.36 125,-377.16"/>
<polygon fill="#666666" stroke="#666666" points="128.5,-377.05 125,-367.05 121.5,-377.05 128.5,-377.05"/>
<text text-anchor="middle" x="148" y="-397.57" font-family="Helvetica,sans-Serif" font-size="9.00">normalize</text>
<text text-anchor="middle" x="148" y="-387.57" font-family="Helvetica,sans-Serif" font-size="9.00">properties</text>
</g>
<!-- addr -->
<g id="node4" class="node">
<title>addr</title>
<path fill="#c8e6c9" stroke="black" d="M171,-279.77C171,-279.77 79,-279.77 79,-279.77 73,-279.77 67,-273.77 67,-267.77 67,-267.77 67,-253.77 67,-253.77 67,-247.77 73,-241.77 79,-241.77 79,-241.77 171,-241.77 171,-241.77 177,-241.77 183,-247.77 183,-253.77 183,-253.77 183,-267.77 183,-267.77 183,-273.77 177,-279.77 171,-279.77"/>
<text text-anchor="middle" x="125" y="-263.97" font-family="Helvetica,sans-Serif" font-size="11.00">Address</text>
<text text-anchor="middle" x="125" y="-251.97" font-family="Helvetica,sans-Serif" font-size="11.00">Reverse Lookup</text>
</g>
<!-- drill&#45;&gt;addr -->
<g id="edge3" class="edge">
<title>drill&#45;&gt;addr</title>
<path fill="none" stroke="#666666" d="M125,-316.64C125,-308.25 125,-298.77 125,-290.07"/>
<polygon fill="#666666" stroke="#666666" points="128.5,-289.99 125,-279.99 121.5,-289.99 128.5,-289.99"/>
</g>
<!-- cross -->
<g id="node5" class="node">
<title>cross</title>
<path fill="#fff9c4" stroke="black" stroke-dasharray="5,2" d="M119.5,-195.77C119.5,-195.77 58.5,-195.77 58.5,-195.77 52.5,-195.77 46.5,-189.77 46.5,-183.77 46.5,-183.77 46.5,-169.77 46.5,-169.77 46.5,-163.77 52.5,-157.77 58.5,-157.77 58.5,-157.77 119.5,-157.77 119.5,-157.77 125.5,-157.77 131.5,-163.77 131.5,-169.77 131.5,-169.77 131.5,-183.77 131.5,-183.77 131.5,-189.77 125.5,-195.77 119.5,-195.77"/>
<text text-anchor="middle" x="89" y="-179.97" font-family="Helvetica,sans-Serif" font-size="11.00">Owner</text>
<text text-anchor="middle" x="89" y="-167.97" font-family="Helvetica,sans-Serif" font-size="11.00">Expansion</text>
</g>
<!-- addr&#45;&gt;cross -->
<g id="edge5" class="edge">
<title>addr&#45;&gt;cross</title>
<path fill="none" stroke="#666666" stroke-dasharray="5,2" d="M117.01,-241.57C112.35,-230.95 106.38,-217.35 101.14,-205.43"/>
<polygon fill="#666666" stroke="#666666" points="104.19,-203.67 96.97,-195.92 97.78,-206.48 104.19,-203.67"/>
<text text-anchor="middle" x="121.5" y="-216.57" font-family="Helvetica,sans-Serif" font-size="9.00">deep</text>
</g>
<!-- done -->
<g id="node7" class="node">
<title>done</title>
<ellipse fill="#e8f5e9" stroke="black" cx="122" cy="-18.38" rx="40.11" ry="18.27"/>
<text text-anchor="middle" x="122" y="-15.58" font-family="Helvetica,sans-Serif" font-size="11.00">Done</text>
</g>
<!-- addr&#45;&gt;done -->
<g id="edge4" class="edge">
<title>addr&#45;&gt;done</title>
<path fill="none" stroke="#666666" d="M131.75,-241.64C133.67,-235.98 135.61,-229.67 137,-223.77 139.89,-211.54 140.11,-208.31 141,-195.77 144.76,-142.87 134.87,-81.34 127.98,-46.71"/>
<polygon fill="#666666" stroke="#666666" points="131.4,-45.96 125.96,-36.87 124.55,-47.37 131.4,-45.96"/>
<text text-anchor="middle" x="160.5" y="-132.57" font-family="Helvetica,sans-Serif" font-size="9.00">standard</text>
</g>
<!-- ipotecaria -->
<g id="node6" class="node">
<title>ipotecaria</title>
<path fill="#ffcdd2" stroke="black" stroke-dasharray="5,2" d="M82,-111.77C82,-111.77 12,-111.77 12,-111.77 6,-111.77 0,-105.77 0,-99.77 0,-99.77 0,-85.77 0,-85.77 0,-79.77 6,-73.77 12,-73.77 12,-73.77 82,-73.77 82,-73.77 88,-73.77 94,-79.77 94,-85.77 94,-85.77 94,-99.77 94,-99.77 94,-105.77 88,-111.77 82,-111.77"/>
<text text-anchor="middle" x="47" y="-95.97" font-family="Helvetica,sans-Serif" font-size="11.00">Ispezione</text>
<text text-anchor="middle" x="47" y="-83.97" font-family="Helvetica,sans-Serif" font-size="11.00">Ipotecaria €</text>
</g>
<!-- cross&#45;&gt;ipotecaria -->
<g id="edge6" class="edge">
<title>cross&#45;&gt;ipotecaria</title>
<path fill="none" stroke="#666666" stroke-dasharray="5,2" d="M79.68,-157.57C74.19,-146.85 67.13,-133.08 60.98,-121.07"/>
<polygon fill="#666666" stroke="#666666" points="63.97,-119.22 56.3,-111.92 57.74,-122.41 63.97,-119.22"/>
<text text-anchor="middle" x="81" y="-132.57" font-family="Helvetica,sans-Serif" font-size="9.00">paid</text>
</g>
<!-- cross&#45;&gt;done -->
<g id="edge8" class="edge">
<title>cross&#45;&gt;done</title>
<path fill="none" stroke="#666666" stroke-dasharray="5,2" d="M93.04,-157.58C95.87,-144.77 99.72,-127.23 103,-111.77 107.63,-89.94 112.72,-65.18 116.46,-46.79"/>
<polygon fill="#666666" stroke="#666666" points="119.93,-47.26 118.49,-36.77 113.07,-45.87 119.93,-47.26"/>
</g>
<!-- ipotecaria&#45;&gt;done -->
<g id="edge7" class="edge">
<title>ipotecaria&#45;&gt;done</title>
<path fill="none" stroke="#666666" stroke-dasharray="5,2" d="M65.93,-73.5C75.7,-64.07 87.73,-52.46 98.14,-42.41"/>
<polygon fill="#666666" stroke="#666666" points="100.61,-44.89 105.38,-35.43 95.75,-39.85 100.61,-44.89"/>
</g>
</g>
</svg>
