<?xml version="1.0" encoding="UTF-8" standalone="no"?>
<!DOCTYPE svg PUBLIC "-//W3C//DTD SVG 1.1//EN"
 "http://www.w3.org/Graphics/SVG/1.1/DTD/svg11.dtd">
<!-- Generated by graphviz version 2.43.0 (0)
 -->
<!-- Title: patrimonio Pages: 1 -->
<svg width="192pt" height="585pt"
 viewBox="0.00 0.00 192.00 584.54" xmlns="http://www.w3.org/2000/svg" xmlns:xlink="http://www.w3.org/1999/xlink">
<g id="graph0" class="graph" transform="scale(1 1) rotate(0) translate(4 580.54)">
<title>patrimonio</title>
<polygon fill="white" stroke="transparent" points="-4,4 -4,-580.54 188,-580.54 188,4 -4,4"/>
<!-- start -->
<g id="node1" class="node">
<title>start</title>
<ellipse fill="#e3f2fd" stroke="black" cx="129" cy="-558.15" rx="39.7" ry="18.27"/>
<text text-anchor="middle" x="129" y="-555.35" font-family="Helvetica,sans-Serif" font-size="11.00">Start</text>
</g>
<!-- soggetto -->
<g id="node2" class="node">
<title>soggetto</title>
<path fill="#bbdefb" stroke="black" d="M156,-502.77C156,-502.77 102,-502.77 102,-502.77 96,-502.77 90,-496.77 90,-490.77 90,-490.77 90,-478.77 90,-478.77 90,-472.77 96,-466.77 102,-466.77 102,-466.77 156,-466.77 156,-466.77 162,-466.77 168,-472.77 168,-478.77 168,-478.77 168,-490.77 168,-490.77 168,-496.77 162,-502.77 156,-502.77"/>
<text text-anchor="middle" x="129" y="-481.97" font-family="Helvetica,sans-Serif" font-size="11.00">Soggetto</text>
</g>
<!-- start&#45;&gt;soggetto -->
<g id="edge1" class="edge">
<title>start&#45;&gt;soggetto</title>
<path fill="none" stroke="#666666" d="M129,-539.51C129,-531.64 129,-522.19 129,-513.42"/>
<polygon fill="#666666" stroke="#666666" points="132.5,-513.21 129,-503.21 125.5,-513.21 132.5,-513.21"/>
</g>
<!-- drill -->
<g id="node3" class="node">
<title>drill</title>
<path fill="#c8e6c9" stroke="black" d="M154,-429.77C154,-429.77 104,-429.77 104,-429.77 98,-429.77 92,-423.77 92,-417.77 92,-417.77 92,-403.77 92,-403.77 92,-397.77 98,-391.77 104,-391.77 104,-391.77 154,-391.77 154,-391.77 160,-391.77 166,-397.77 166,-403.77 166,-403.77 166,-417.77 166,-417.77 166,-423.77 160,-429.77 154,-429.77"/>
<text text-anchor="middle" x="129" y="-413.97" font-family="Helvetica,sans-Serif" font-size="11.00">Drill</text>
<text text-anchor="middle" x="129" y="-401.97" font-family="Helvetica,sans-Serif" font-size="11.00">Intestati</text>
</g>
<!-- soggetto&#45;&gt;drill -->
<g id="edge2" class="edge">
<title>soggetto&#45;&gt;drill</title>
<path fill="none" stroke="#666666" d="M129,-466.71C129,-458.76 129,-449.08 129,-440.08"/>
<polygon fill="#666666" stroke="#666666" points="132.5,-439.97 129,-429.97 125.5,-439.97 132.5,-439.97"/>
</g>
<!-- addr -->
<g id="node4" class="node">
<title>addr</title>
<path fill="#c8e6c9" stroke="black" d="M154,-354.77C154,-354.77 104,-354.77 104,-354.77 98,-354.77 92,-348.77 92,-342.77 92,-342.77 92,-328.77 92,-328.77 92,-322.77 98,-316.77 104,-316.77 104,-316.77 154,-316.77 154,-316.77 160,-316.77 166,-322.77 166,-328.77 166,-328.77 166,-342.77 166,-342.77 166,-348.77 160,-354.77 154,-354.77"/>
<text text-anchor="middle" x="129" y="-338.97" font-family="Helvetica,sans-Serif" font-size="11.00">Address</text>
<text text-anchor="middle" x="129" y="-326.97" font-family="Helvetica,sans-Serif" font-size="11.00">Reverse</text>
</g>
<!-- drill&#45;&gt;addr -->
<g id="edge3" class="edge">
<title>drill&#45;&gt;addr</title>
<path fill="none" stroke="#666666" d="M129,-391.72C129,-383.65 129,-373.95 129,-364.95"/>
<polygon fill="#666666" stroke="#666666" points="132.5,-364.86 129,-354.86 125.5,-364.86 132.5,-364.86"/>
</g>
<!-- expand -->
<g id="node5" class="node">
<title>expand</title>
<path fill="#fff9c4" stroke="black" stroke-dasharray="5,2" d="M119.5,-270.77C119.5,-270.77 74.5,-270.77 74.5,-270.77 68.5,-270.77 62.5,-264.77 62.5,-258.77 62.5,-258.77 62.5,-244.77 62.5,-244.77 62.5,-238.77 68.5,-232.77 74.5,-232.77 74.5,-232.77 119.5,-232.77 119.5,-232.77 125.5,-232.77 131.5,-238.77 131.5,-244.77 131.5,-244.77 131.5,-258.77 131.5,-258.77 131.5,-264.77 125.5,-270.77 119.5,-270.77"/>
<text text-anchor="middle" x="97" y="-254.97" font-family="Helvetica,sans-Serif" font-size="11.00">Owner</text>
<text text-anchor="middle" x="97" y="-242.97" font-family="Helvetica,sans-Serif" font-size="11.00">Expand</text>
</g>
<!-- addr&#45;&gt;expand -->
<g id="edge5" class="edge">
<title>addr&#45;&gt;expand</title>
<path fill="none" stroke="#666666" stroke-dasharray="5,2" d="M121.9,-316.57C117.76,-305.95 112.45,-292.35 107.79,-280.43"/>
<polygon fill="#666666" stroke="#666666" points="110.98,-278.96 104.08,-270.92 104.46,-281.51 110.98,-278.96"/>
<text text-anchor="middle" x="125.5" y="-291.57" font-family="Helvetica,sans-Serif" font-size="9.00">deep</text>
</g>
<!-- risk -->
<g id="node7" class="node">
<title>risk</title>
<path fill="#e8eaf6" stroke="black" d="M139.5,-111.77C139.5,-111.77 104.5,-111.77 104.5,-111.77 98.5,-111.77 92.5,-105.77 92.5,-99.77 92.5,-99.77 92.5,-85.77 92.5,-85.77 92.5,-79.77 98.5,-73.77 104.5,-73.77 104.5,-73.77 139.5,-73.77 139.5,-73.77 145.5,-73.77 151.5,-79.77 151.5,-85.77 151.5,-85.77 151.5,-99.77 151.5,-99.77 151.5,-105.77 145.5,-111.77 139.5,-111.77"/>
<text text-anchor="middle" x="122" y="-95.97" font-family="Helvetica,sans-Serif" font-size="11.00">Risk</text>
<text text-anchor="middle" x="122" y="-83.97" font-family="Helvetica,sans-Serif" font-size="11.00">Score</text>
</g>
<!-- addr&#45;&gt;risk -->
<g id="edge4" class="edge">
<title>addr&#45;&gt;risk</title>
<path fill="none" stroke="#666666" d="M136.27,-316.74C138.21,-311.08 140.03,-304.75 141,-298.77 151.2,-235.94 138.01,-161.32 129.04,-121.72"/>
<polygon fill="#666666" stroke="#666666" points="132.45,-120.91 126.76,-111.97 125.63,-122.51 132.45,-120.91"/>
<text text-anchor="middle" x="163.5" y="-207.57" font-family="Helvetica,sans-Serif" font-size="9.00">standard</text>
</g>
<!-- ipotecaria -->
<g id="node6" class="node">
<title>ipotecaria</title>
<path fill="#ffcdd2" stroke="black" stroke-dasharray="5,2" d="M82,-186.77C82,-186.77 12,-186.77 12,-186.77 6,-186.77 0,-180.77 0,-174.77 0,-174.77 0,-160.77 0,-160.77 0,-154.77 6,-148.77 12,-148.77 12,-148.77 82,-148.77 82,-148.77 88,-148.77 94,-154.77 94,-160.77 94,-160.77 94,-174.77 94,-174.77 94,-180.77 88,-186.77 82,-186.77"/>
<text text-anchor="middle" x="47" y="-170.97" font-family="Helvetica,sans-Serif" font-size="11.00">Ispezione</text>
<text text-anchor="middle" x="47" y="-158.97" font-family="Helvetica,sans-Serif" font-size="11.00">Ipotecaria €</text>
</g>
<!-- expand&#45;&gt;ipotecaria -->
<g id="edge6" class="edge">
<title>expand&#45;&gt;ipotecaria</title>
<path fill="none" stroke="#666666" stroke-dasharray="5,2" d="M85.9,-232.57C79.3,-221.74 70.8,-207.8 63.43,-195.72"/>
<polygon fill="#666666" stroke="#666666" points="66.26,-193.63 58.07,-186.92 60.28,-197.28 66.26,-193.63"/>
<text text-anchor="middle" x="85" y="-207.57" font-family="Helvetica,sans-Serif" font-size="9.00">paid</text>
</g>
<!-- expand&#45;&gt;risk -->
<g id="edge8" class="edge">
<title>expand&#45;&gt;risk</title>
<path fill="none" stroke="#666666" stroke-dasharray="5,2" d="M99.87,-232.76C104.18,-205.7 112.36,-154.29 117.48,-122.15"/>
<polygon fill="#666666" stroke="#666666" points="120.97,-122.48 119.09,-112.05 114.06,-121.38 120.97,-122.48"/>
</g>
<!-- ipotecaria&#45;&gt;risk -->
<g id="edge7" class="edge">
<title>ipotecaria&#45;&gt;risk</title>
<path fill="none" stroke="#666666" stroke-dasharray="5,2" d="M65.54,-148.72C74.73,-139.77 85.99,-128.82 96.03,-119.05"/>
<polygon fill="#666666" stroke="#666666" points="98.69,-121.34 103.41,-111.86 93.81,-116.33 98.69,-121.34"/>
</g>
<!-- done -->
<g id="node8" class="node">
<title>done</title>
<ellipse fill="#e8f5e9" stroke="black" cx="122" cy="-18.38" rx="40.11" ry="18.27"/>
<text text-anchor="middle" x="122" y="-15.58" font-family="Helvetica,sans-Serif" font-size="11.00">Done</text>
</g>
<!-- risk&#45;&gt;done -->
<g id="edge9" class="edge">
<title>risk&#45;&gt;done</title>
<path fill="none" stroke="#666666" d="M122,-73.5C122,-65.52 122,-55.99 122,-47.16"/>
<polygon fill="#666666" stroke="#666666" points="125.5,-46.9 122,-36.9 118.5,-46.9 125.5,-46.9"/>
</g>
</g>
</svg>
