<?xml version="1.0" encoding="UTF-8" standalone="no"?>
<!DOCTYPE svg PUBLIC "-//W3C//DTD SVG 1.1//EN"
 "http://www.w3.org/Graphics/SVG/1.1/DTD/svg11.dtd">
<!-- Generated by graphviz version 2.43.0 (0)
 -->
<!-- Title: storico Pages: 1 -->
<svg width="189pt" height="810pt"
 viewBox="0.00 0.00 189.00 809.54" xmlns="http://www.w3.org/2000/svg" xmlns:xlink="http://www.w3.org/1999/xlink">
<g id="graph0" class="graph" transform="scale(1 1) rotate(0) translate(4 805.54)">
<title>storico</title>
<polygon fill="white" stroke="transparent" points="-4,4 -4,-805.54 185,-805.54 185,4 -4,4"/>
<!-- start -->
<g id="node1" class="node">
<title>start</title>
<ellipse fill="#e3f2fd" stroke="black" cx="125" cy="-783.15" rx="39.7" ry="18.27"/>
<text text-anchor="middle" x="125" y="-780.35" font-family="Helvetica,sans-Serif" font-size="11.00">Start</text>
</g>
<!-- search -->
<g id="node2" class="node">
<title>search</title>
<path fill="#bbdefb" stroke="black" d="M155,-727.77C155,-727.77 95,-727.77 95,-727.77 89,-727.77 83,-721.77 83,-715.77 83,-715.77 83,-701.77 83,-701.77 83,-695.77 89,-689.77 95,-689.77 95,-689.77 155,-689.77 155,-689.77 161,-689.77 167,-695.77 167,-701.77 167,-701.77 167,-715.77 167,-715.77 167,-721.77 161,-727.77 155,-727.77"/>
<text text-anchor="middle" x="125" y="-711.97" font-family="Helvetica,sans-Serif" font-size="11.00">Search</text>
<text text-anchor="middle" x="125" y="-699.97" font-family="Helvetica,sans-Serif" font-size="11.00">(immobili)</text>
</g>
<!-- start&#45;&gt;search -->
<g id="edge1" class="edge">
<title>start&#45;&gt;search</title>
<path fill="none" stroke="#666666" d="M125,-764.63C125,-756.63 125,-746.96 125,-737.97"/>
<polygon fill="#666666" stroke="#666666" points="128.5,-737.89 125,-727.89 121.5,-737.89 128.5,-737.89"/>
</g>
<!-- intestati -->
<g id="node3" class="node">
<title>intestati</title>
<path fill="#bbdefb" stroke="black" d="M150,-652.77C150,-652.77 100,-652.77 100,-652.77 94,-652.77 88,-646.77 88,-640.77 88,-640.77 88,-628.77 88,-628.77 88,-622.77 94,-616.77 100,-616.77 100,-616.77 150,-616.77 150,-616.77 156,-616.77 162,-622.77 162,-628.77 162,-628.77 162,-640.77 162,-640.77 162,-646.77 156,-652.77 150,-652.77"/>
<text text-anchor="middle" x="125" y="-631.97" font-family="Helvetica,sans-Serif" font-size="11.00">Intestati</text>
</g>
<!-- search&#45;&gt;intestati -->
<g id="edge2" class="edge">
<title>search&#45;&gt;intestati</title>
<path fill="none" stroke="#666666" d="M125,-689.6C125,-681.66 125,-672.18 125,-663.4"/>
<polygon fill="#666666" stroke="#666666" points="128.5,-663.19 125,-653.19 121.5,-663.19 128.5,-663.19"/>
</g>
<!-- nota -->
<g id="node4" class="node">
<title>nota</title>
<path fill="#c8e6c9" stroke="black" d="M168,-579.77C168,-579.77 82,-579.77 82,-579.77 76,-579.77 70,-573.77 70,-567.77 70,-567.77 70,-553.77 70,-553.77 70,-547.77 76,-541.77 82,-541.77 82,-541.77 168,-541.77 168,-541.77 174,-541.77 180,-547.77 180,-553.77 180,-553.77 180,-567.77 180,-567.77 180,-573.77 174,-579.77 168,-579.77"/>
<text text-anchor="middle" x="125" y="-563.97" font-family="Helvetica,sans-Serif" font-size="11.00">Nota</text>
<text text-anchor="middle" x="125" y="-551.97" font-family="Helvetica,sans-Serif" font-size="11.00">(deed records)</text>
</g>
<!-- intestati&#45;&gt;nota -->
<g id="edge3" class="edge">
<title>intestati&#45;&gt;nota</title>
<path fill="none" stroke="#666666" d="M125,-616.71C125,-608.76 125,-599.08 125,-590.08"/>
<polygon fill="#666666" stroke="#666666" points="128.5,-589.97 125,-579.97 121.5,-589.97 128.5,-589.97"/>
</g>
<!-- ispezioni -->
<g id="node5" class="node">
<title>ispezioni</title>
<path fill="#c8e6c9" stroke="black" d="M151.5,-504.77C151.5,-504.77 98.5,-504.77 98.5,-504.77 92.5,-504.77 86.5,-498.77 86.5,-492.77 86.5,-492.77 86.5,-478.77 86.5,-478.77 86.5,-472.77 92.5,-466.77 98.5,-466.77 98.5,-466.77 151.5,-466.77 151.5,-466.77 157.5,-466.77 163.5,-472.77 163.5,-478.77 163.5,-478.77 163.5,-492.77 163.5,-492.77 163.5,-498.77 157.5,-504.77 151.5,-504.77"/>
<text text-anchor="middle" x="125" y="-488.97" font-family="Helvetica,sans-Serif" font-size="11.00">Ispezioni</text>
<text text-anchor="middle" x="125" y="-476.97" font-family="Helvetica,sans-Serif" font-size="11.00">(digital)</text>
</g>
<!-- nota&#45;&gt;ispezioni -->
<g id="edge4" class="edge">
<title>nota&#45;&gt;ispezioni</title>
<path fill="none" stroke="#666666" d="M125,-541.72C125,-533.65 125,-523.95 125,-514.95"/>
<polygon fill="#666666" stroke="#666666" points="128.5,-514.86 125,-504.86 121.5,-514.86 128.5,-514.86"/>
</g>
<!-- ispcart -->
<g id="node6" class="node">
<title>ispcart</title>
<path fill="#c8e6c9" stroke="black" d="M152,-429.77C152,-429.77 98,-429.77 98,-429.77 92,-429.77 86,-423.77 86,-417.77 86,-417.77 86,-403.77 86,-403.77 86,-397.77 92,-391.77 98,-391.77 98,-391.77 152,-391.77 152,-391.77 158,-391.77 164,-397.77 164,-403.77 164,-403.77 164,-417.77 164,-417.77 164,-423.77 158,-429.77 152,-429.77"/>
<text text-anchor="middle" x="125" y="-413.97" font-family="Helvetica,sans-Serif" font-size="11.00">Ispezioni</text>
<text text-anchor="middle" x="125" y="-401.97" font-family="Helvetica,sans-Serif" font-size="11.00">Cartacee</text>
</g>
<!-- ispezioni&#45;&gt;ispcart -->
<g id="edge5" class="edge">
<title>ispezioni&#45;&gt;ispcart</title>
<path fill="none" stroke="#666666" d="M125,-466.72C125,-458.65 125,-448.95 125,-439.95"/>
<polygon fill="#666666" stroke="#666666" points="128.5,-439.86 125,-429.86 121.5,-439.86 128.5,-439.86"/>
</g>
<!-- originali -->
<g id="node7" class="node">
<title>originali</title>
<path fill="#c8e6c9" stroke="black" d="M151.5,-354.77C151.5,-354.77 98.5,-354.77 98.5,-354.77 92.5,-354.77 86.5,-348.77 86.5,-342.77 86.5,-342.77 86.5,-328.77 86.5,-328.77 86.5,-322.77 92.5,-316.77 98.5,-316.77 98.5,-316.77 151.5,-316.77 151.5,-316.77 157.5,-316.77 163.5,-322.77 163.5,-328.77 163.5,-328.77 163.5,-342.77 163.5,-342.77 163.5,-348.77 157.5,-354.77 151.5,-354.77"/>
<text text-anchor="middle" x="125" y="-338.97" font-family="Helvetica,sans-Serif" font-size="11.00">Originali</text>
<text text-anchor="middle" x="125" y="-326.97" font-family="Helvetica,sans-Serif" font-size="11.00">Impianto</text>
</g>
<!-- ispcart&#45;&gt;originali -->
<g id="edge6" class="edge">
<title>ispcart&#45;&gt;originali</title>
<path fill="none" stroke="#666666" d="M125,-391.72C125,-383.65 125,-373.95 125,-364.95"/>
<polygon fill="#666666" stroke="#666666" points="128.5,-364.86 125,-354.86 121.5,-364.86 128.5,-364.86"/>
</g>
<!-- elaborato -->
<g id="node8" class="node">
<title>elaborato</title>
<path fill="#c8e6c9" stroke="black" d="M161.5,-279.77C161.5,-279.77 88.5,-279.77 88.5,-279.77 82.5,-279.77 76.5,-273.77 76.5,-267.77 76.5,-267.77 76.5,-253.77 76.5,-253.77 76.5,-247.77 82.5,-241.77 88.5,-241.77 88.5,-241.77 161.5,-241.77 161.5,-241.77 167.5,-241.77 173.5,-247.77 173.5,-253.77 173.5,-253.77 173.5,-267.77 173.5,-267.77 173.5,-273.77 167.5,-279.77 161.5,-279.77"/>
<text text-anchor="middle" x="125" y="-263.97" font-family="Helvetica,sans-Serif" font-size="11.00">Elaborato</text>
<text text-anchor="middle" x="125" y="-251.97" font-family="Helvetica,sans-Serif" font-size="11.00">Planimetrico</text>
</g>
<!-- originali&#45;&gt;elaborato -->
<g id="edge7" class="edge">
<title>originali&#45;&gt;elaborato</title>
<path fill="none" stroke="#666666" d="M125,-316.72C125,-308.65 125,-298.95 125,-289.95"/>
<polygon fill="#666666" stroke="#666666" points="128.5,-289.86 125,-279.86 121.5,-289.86 128.5,-289.86"/>
</g>
<!-- cross -->
<g id="node9" class="node">
<title>cross</title>
<path fill="#fff9c4" stroke="black" stroke-dasharray="5,2" d="M119.5,-195.77C119.5,-195.77 58.5,-195.77 58.5,-195.77 52.5,-195.77 46.5,-189.77 46.5,-183.77 46.5,-183.77 46.5,-169.77 46.5,-169.77 46.5,-163.77 52.5,-157.77 58.5,-157.77 58.5,-157.77 119.5,-157.77 119.5,-157.77 125.5,-157.77 131.5,-163.77 131.5,-169.77 131.5,-169.77 131.5,-183.77 131.5,-183.77 131.5,-189.77 125.5,-195.77 119.5,-195.77"/>
<text text-anchor="middle" x="89" y="-179.97" font-family="Helvetica,sans-Serif" font-size="11.00">Owner</text>
<text text-anchor="middle" x="89" y="-167.97" font-family="Helvetica,sans-Serif" font-size="11.00">Expansion</text>
</g>
<!-- elaborato&#45;&gt;cross -->
<g id="edge9" class="edge">
<title>elaborato&#45;&gt;cross</title>
<path fill="none" stroke="#666666" stroke-dasharray="5,2" d="M117.01,-241.57C112.35,-230.95 106.38,-217.35 101.14,-205.43"/>
<polygon fill="#666666" stroke="#666666" points="104.19,-203.67 96.97,-195.92 97.78,-206.48 104.19,-203.67"/>
<text text-anchor="middle" x="121.5" y="-216.57" font-family="Helvetica,sans-Serif" font-size="9.00">deep</text>
</g>
<!-- done -->
<g id="node11" class="node">
<title>done</title>
<ellipse fill="#e8f5e9" stroke="black" cx="122" cy="-18.38" rx="40.11" ry="18.27"/>
<text text-anchor="middle" x="122" y="-15.58" font-family="Helvetica,sans-Serif" font-size="11.00">Done</text>
</g>
<!-- elaborato&#45;&gt;done -->
<g id="edge8" class="edge">
<title>elaborato&#45;&gt;done</title>
<path fill="none" stroke="#666666" d="M131.75,-241.64C133.67,-235.98 135.61,-229.67 137,-223.77 139.89,-211.54 140.11,-208.31 141,-195.77 144.76,-142.87 134.87,-81.34 127.98,-46.71"/>
<polygon fill="#666666" stroke="#666666" points="131.4,-45.96 125.96,-36.87 124.55,-47.37 131.4,-45.96"/>
<text text-anchor="middle" x="160.5" y="-132.57" font-family="Helvetica,sans-Serif" font-size="9.00">standard</text>
</g>
<!-- ipotecaria -->
<g id="node10" class="node">
<title>ipotecaria</title>
<path fill="#ffcdd2" stroke="black" stroke-dasharray="5,2" d="M82,-111.77C82,-111.77 12,-111.77 12,-111.77 6,-111.77 0,-105.77 0,-99.77 0,-99.77 0,-85.77 0,-85.77 0,-79.77 6,-73.77 12,-73.77 12,-73.77 82,-73.77 82,-73.77 88,-73.77 94,-79.77 94,-85.77 94,-85.77 94,-99.77 94,-99.77 94,-105.77 88,-111.77 82,-111.77"/>
<text text-anchor="middle" x="47" y="-95.97" font-family="Helvetica,sans-Serif" font-size="11.00">Ispezione</text>
<text text-anchor="middle" x="47" y="-83.97" font-family="Helvetica,sans-Serif" font-size="11.00">Ipotecaria €</text>
</g>
<!-- cross&#45;&gt;ipotecaria -->
<g id="edge10" class="edge">
<title>cross&#45;&gt;ipotecaria</title>
<path fill="none" stroke="#666666" stroke-dasharray="5,2" d="M79.68,-157.57C74.19,-146.85 67.13,-133.08 60.98,-121.07"/>
<polygon fill="#666666" stroke="#666666" points="63.97,-119.22 56.3,-111.92 57.74,-122.41 63.97,-119.22"/>
<text text-anchor="middle" x="81" y="-132.57" font-family="Helvetica,sans-Serif" font-size="9.00">paid</text>
</g>
<!-- cross&#45;&gt;done -->
<g id="edge12" class="edge">
<title>cross&#45;&gt;done</title>
<path fill="none" stroke="#666666" stroke-dasharray="5,2" d="M93.04,-157.58C95.87,-144.77 99.72,-127.23 103,-111.77 107.63,-89.94 112.72,-65.18 116.46,-46.79"/>
<polygon fill="#666666" stroke="#666666" points="119.93,-47.26 118.49,-36.77 113.07,-45.87 119.93,-47.26"/>
</g>
<!-- ipotecaria&#45;&gt;done -->
<g id="edge11" class="edge">
<title>ipotecaria&#45;&gt;done</title>
<path fill="none" stroke="#666666" stroke-dasharray="5,2" d="M65.93,-73.5C75.7,-64.07 87.73,-52.46 98.14,-42.41"/>
<polygon fill="#666666" stroke="#666666" points="100.61,-44.89 105.38,-35.43 95.75,-39.85 100.61,-44.89"/>
</g>
</g>
</svg>
