<?xml version="1.0" encoding="UTF-8" standalone="no"?>
<!DOCTYPE svg PUBLIC "-//W3C//DTD SVG 1.1//EN"
 "http://www.w3.org/Graphics/SVG/1.1/DTD/svg11.dtd">
<!-- Generated by graphviz version 2.43.0 (0)
 -->
<!-- Title: storico Pages: 1 -->
<svg width="164pt" height="587pt"
 viewBox="0.00 0.00 164.20 586.74" xmlns="http://www.w3.org/2000/svg" xmlns:xlink="http://www.w3.org/1999/xlink">
<g id="graph0" class="graph" transform="scale(1 1) rotate(0) translate(21.6 565.14)">
<title>storico</title>
<!-- start -->
<g id="node1" class="node">
<title>start</title>
<ellipse fill="#3b82f6" stroke="black" cx="60.5" cy="-525.15" rx="37.45" ry="18.27"/>
<text text-anchor="middle" x="60.5" y="-522.35" font-family="Inter" font-size="11.00" fill="white">Start</text>
</g>
<!-- search -->
<g id="node2" class="node">
<title>search</title>
<path fill="#dbeafe" stroke="black" d="M103.5,-470.77C103.5,-470.77 17.5,-470.77 17.5,-470.77 11.5,-470.77 5.5,-464.77 5.5,-458.77 5.5,-458.77 5.5,-446.77 5.5,-446.77 5.5,-440.77 11.5,-434.77 17.5,-434.77 17.5,-434.77 103.5,-434.77 103.5,-434.77 109.5,-434.77 115.5,-440.77 115.5,-446.77 115.5,-446.77 115.5,-458.77 115.5,-458.77 115.5,-464.77 109.5,-470.77 103.5,-470.77"/>
<text text-anchor="middle" x="60.5" y="-449.97" font-family="Inter" font-size="11.00">Property Search</text>
</g>
<!-- start&#45;&gt;search -->
<g id="edge1" class="edge">
<title>start&#45;&gt;search</title>
<path fill="none" stroke="#64748b" d="M60.5,-506.76C60.5,-499 60.5,-489.68 60.5,-481.03"/>
<polygon fill="#64748b" stroke="#64748b" points="64,-480.97 60.5,-470.97 57,-480.97 64,-480.97"/>
</g>
<!-- intestati -->
<g id="node3" class="node">
<title>intestati</title>
<path fill="#dbeafe" stroke="black" d="M101,-398.77C101,-398.77 20,-398.77 20,-398.77 14,-398.77 8,-392.77 8,-386.77 8,-386.77 8,-374.77 8,-374.77 8,-368.77 14,-362.77 20,-362.77 20,-362.77 101,-362.77 101,-362.77 107,-362.77 113,-368.77 113,-374.77 113,-374.77 113,-386.77 113,-386.77 113,-392.77 107,-398.77 101,-398.77"/>
<text text-anchor="middle" x="60.5" y="-377.97" font-family="Inter" font-size="11.00">Owner Lookup</text>
</g>
<!-- search&#45;&gt;intestati -->
<g id="edge2" class="edge">
<title>search&#45;&gt;intestati</title>
<path fill="none" stroke="#64748b" d="M60.5,-434.47C60.5,-426.75 60.5,-417.48 60.5,-408.88"/>
<polygon fill="#64748b" stroke="#64748b" points="64,-408.87 60.5,-398.87 57,-408.87 64,-408.87"/>
</g>
<!-- nota -->
<g id="node4" class="node">
<title>nota</title>
<path fill="#fce7f3" stroke="black" d="M94,-326.77C94,-326.77 27,-326.77 27,-326.77 21,-326.77 15,-320.77 15,-314.77 15,-314.77 15,-300.77 15,-300.77 15,-294.77 21,-288.77 27,-288.77 27,-288.77 94,-288.77 94,-288.77 100,-288.77 106,-294.77 106,-300.77 106,-300.77 106,-314.77 106,-314.77 106,-320.77 100,-326.77 94,-326.77"/>
<text text-anchor="middle" x="60.5" y="-310.97" font-family="Inter" font-size="11.00">Annotations</text>
<text text-anchor="middle" x="60.5" y="-298.97" font-family="Inter" font-size="11.00">(note)</text>
</g>
<!-- intestati&#45;&gt;nota -->
<g id="edge3" class="edge">
<title>intestati&#45;&gt;nota</title>
<path fill="none" stroke="#64748b" d="M60.5,-362.58C60.5,-354.88 60.5,-345.59 60.5,-336.92"/>
<polygon fill="#64748b" stroke="#64748b" points="64,-336.79 60.5,-326.79 57,-336.79 64,-336.79"/>
</g>
<!-- ispezioni -->
<g id="node5" class="node">
<title>ispezioni</title>
<path fill="#fef3c7" stroke="black" d="M92.5,-252.77C92.5,-252.77 28.5,-252.77 28.5,-252.77 22.5,-252.77 16.5,-246.77 16.5,-240.77 16.5,-240.77 16.5,-228.77 16.5,-228.77 16.5,-222.77 22.5,-216.77 28.5,-216.77 28.5,-216.77 92.5,-216.77 92.5,-216.77 98.5,-216.77 104.5,-222.77 104.5,-228.77 104.5,-228.77 104.5,-240.77 104.5,-240.77 104.5,-246.77 98.5,-252.77 92.5,-252.77"/>
<text text-anchor="middle" x="60.5" y="-231.97" font-family="Inter" font-size="11.00">Inspections</text>
</g>
<!-- nota&#45;&gt;ispezioni -->
<g id="edge4" class="edge">
<title>nota&#45;&gt;ispezioni</title>
<path fill="none" stroke="#64748b" d="M60.5,-288.49C60.5,-280.74 60.5,-271.56 60.5,-263.04"/>
<polygon fill="#64748b" stroke="#64748b" points="64,-262.77 60.5,-252.77 57,-262.77 64,-262.77"/>
</g>
<!-- ispcart -->
<g id="node6" class="node">
<title>ispcart</title>
<path fill="#fef3c7" stroke="black" d="M109,-180.77C109,-180.77 12,-180.77 12,-180.77 6,-180.77 0,-174.77 0,-168.77 0,-168.77 0,-156.77 0,-156.77 0,-150.77 6,-144.77 12,-144.77 12,-144.77 109,-144.77 109,-144.77 115,-144.77 121,-150.77 121,-156.77 121,-156.77 121,-168.77 121,-168.77 121,-174.77 115,-180.77 109,-180.77"/>
<text text-anchor="middle" x="60.5" y="-159.97" font-family="Inter" font-size="11.00">Paper Inspections</text>
</g>
<!-- ispezioni&#45;&gt;ispcart -->
<g id="edge5" class="edge">
<title>ispezioni&#45;&gt;ispcart</title>
<path fill="none" stroke="#64748b" d="M60.5,-216.47C60.5,-208.75 60.5,-199.48 60.5,-190.88"/>
<polygon fill="#64748b" stroke="#64748b" points="64,-190.87 60.5,-180.87 57,-190.87 64,-190.87"/>
</g>
<!-- originali -->
<g id="node7" class="node">
<title>originali</title>
<path fill="#fef3c7" stroke="black" d="M105.5,-108.77C105.5,-108.77 15.5,-108.77 15.5,-108.77 9.5,-108.77 3.5,-102.77 3.5,-96.77 3.5,-96.77 3.5,-84.77 3.5,-84.77 3.5,-78.77 9.5,-72.77 15.5,-72.77 15.5,-72.77 105.5,-72.77 105.5,-72.77 111.5,-72.77 117.5,-78.77 117.5,-84.77 117.5,-84.77 117.5,-96.77 117.5,-96.77 117.5,-102.77 111.5,-108.77 105.5,-108.77"/>
<text text-anchor="middle" x="60.5" y="-87.97" font-family="Inter" font-size="11.00">Original Records</text>
</g>
<!-- ispcart&#45;&gt;originali -->
<g id="edge6" class="edge">
<title>ispcart&#45;&gt;originali</title>
<path fill="none" stroke="#64748b" d="M60.5,-144.47C60.5,-136.75 60.5,-127.48 60.5,-118.88"/>
<polygon fill="#64748b" stroke="#64748b" points="64,-118.87 60.5,-108.87 57,-118.87 64,-118.87"/>
</g>
<!-- done -->
<g id="node8" class="node">
<title>done</title>
<ellipse fill="#22c55e" stroke="black" cx="60.5" cy="-18.38" rx="44.6" ry="18.27"/>
<text text-anchor="middle" x="60.5" y="-15.58" font-family="Inter" font-size="11.00" fill="white">Report</text>
</g>
<!-- originali&#45;&gt;done -->
<g id="edge7" class="edge">
<title>originali&#45;&gt;done</title>
<path fill="none" stroke="#64748b" d="M60.5,-72.73C60.5,-65.1 60.5,-55.89 60.5,-47.29"/>
<polygon fill="#64748b" stroke="#64748b" points="64,-47.25 60.5,-37.25 57,-47.25 64,-47.25"/>
</g>
</g>
</svg>
